<?xml version="1.0" encoding="utf-8"?>
<!-- Generator: Adobe Illustrator 15.0.2, SVG Export Plug-In  -->
<!DOCTYPE svg PUBLIC "-//W3C//DTD SVG 1.1//EN" "http://www.w3.org/Graphics/SVG/1.1/DTD/svg11.dtd" [
	<!ENTITY ns_flows "http://ns.adobe.com/Flows/1.0/">
]>
<svg version="1.1"
	 xmlns="http://www.w3.org/2000/svg" xmlns:xlink="http://www.w3.org/1999/xlink" xmlns:a="http://ns.adobe.com/AdobeSVGViewerExtensions/3.0/"
	 x="0px" y="0px" width="100px" height="100px" viewBox="-2.56 -2 100 100" enable-background="new -2.56 -2 100 100"
	 xml:space="preserve">
<defs>
</defs>
<path fill="#9F9F9F" d="M45.311,21.54c-1.833,0.516-3.29,2.048-4.103,4.321c-0.826,2.309-0.884,4.71-0.164,7.457
	c1.288,4.889,4.766,8.439,8.273,8.439c0.461,0,0.916-0.063,1.355-0.188c3.832-1.078,6.232-6.932,4.643-12.531
	c-1.688-5.932-4.41-7.688-8.646-7.688C46.211,21.352,45.753,21.414,45.311,21.54z"/>
<path fill="#9F9F9F" d="M48.117,56.076c-3.104,0.229-5.96,1.391-8.038,3.273c-2.051,1.859-3.099,4.193-2.949,6.575
	c0.312,4.956,5.641,7.87,12.113,7.397c6.375-0.464,10.619-4.125,10.309-9.088c-0.295-4.674-4.351-8.195-10.341-8.195
	C48.849,56.039,48.483,56.053,48.117,56.076z"/>
<path fill="#9F9F9F" d="M48,0C21.49,0,0,21.49,0,48c0,26.511,21.49,48,48,48c26.512,0,48-21.489,48-48C96,21.49,74.512,0,48,0z
	 M65.995,17.304c0,1.817-3.258,2.162-5.483,2.466c-0.75,0.104-2.264,0.262-2.692,0.482c4.108,2.191,4.773,5.642,4.773,10.783
	c0,5.848-2.291,8.943-4.721,11.118c-1.501,1.343-2.688,2.404-2.688,3.815c0,1.387,1.626,2.813,3.506,4.463
	c3.082,2.709,7.305,6.414,7.305,12.642c0,6.444-2.771,11.056-8.235,13.708c-4.209,2.045-8.745,2.267-10.499,2.267
	c-0.332,0-0.526-0.009-0.557-0.009c0,0-0.125,0.004-0.341,0.004c-2.733,0-16.358-0.629-16.358-13.039
	c0-12.193,14.836-13.145,19.384-13.145l0.12,0.002c-2.627-3.504-2.082-7.045-2.082-7.045c-0.231,0.016-0.566,0.033-0.981,0.033
	c-1.713,0-5.014-0.274-7.853-2.106c-3.473-2.233-5.232-6.039-5.232-11.309c0-14.877,16.246-15.479,16.407-15.482h16.228V17.304z"/>
</svg>
