<?xml version="1.0" encoding="utf-8"?>
<!-- Generator: Adobe Illustrator 15.0.2, SVG Export Plug-In . SVG Version: 6.00 Build 0)  -->
<!DOCTYPE svg PUBLIC "-//W3C//DTD SVG 1.1//EN" "http://www.w3.org/Graphics/SVG/1.1/DTD/svg11.dtd">
<svg version="1.1" id="图层_1" xmlns="http://www.w3.org/2000/svg" xmlns:xlink="http://www.w3.org/1999/xlink" x="0px" y="0px"
	 width="100px" height="100px" viewBox="0 0 100 100" enable-background="new 0 0 100 100" xml:space="preserve">
<path fill="#323333" d="M0,13v75.07h100V13H0z M92.657,80.729H7.343V20.343h85.314V80.729z"/>
<path fill="#323333" d="M67.057,48.11h-4.501v-7.461c0-6.84-5.545-12.388-12.387-12.388c-0.06,0-0.114-0.004-0.167-0.004
	c-0.02,0-0.04,0.003-0.061,0.003c-0.015,0-0.032,0-0.051,0c-0.059,0-0.123,0.001-0.178,0.001c-6.842,0-12.383,5.549-12.383,12.388
	v7.461h-4.385v25.619h34.113V48.11z M56.357,48.11H43.527v-7.461c0-3.41,2.773-6.188,6.185-6.188c0.099,0,0.304-0.004,0.304-0.004
	s0.101,0.004,0.152,0.004c3.414,0,6.189,2.773,6.189,6.188V48.11z"/>
</svg>
