<?xml version="1.0" encoding="utf-8"?>
<!-- Generator: Adobe Illustrator 15.0.2, SVG Export Plug-In . SVG Version: 6.00 Build 0)  -->
<!DOCTYPE svg PUBLIC "-//W3C//DTD SVG 1.1//EN" "http://www.w3.org/Graphics/SVG/1.1/DTD/svg11.dtd">
<svg version="1.1" id="图层_1" xmlns="http://www.w3.org/2000/svg" xmlns:xlink="http://www.w3.org/1999/xlink" x="0px" y="0px"
	 width="100px" height="100px" viewBox="0 0 100 100" enable-background="new 0 0 100 100" xml:space="preserve">
<path fill="#323333" d="M100.186,67.225V39.351c0-7.533-5.733-13.724-13.074-14.449v27.61c0,11.598-9.436,21.033-21.032,21.033
	H33.703c-2.212,2.028-4.404,3.676-6.527,5.03c2.482,1.978,5.624,3.171,9.048,3.171h35.004c13.989,14.27,28.879,11.396,25.916,9.162
	c-4.437-3.346-6.74-6.643-7.768-9.659C95.594,79.605,100.186,73.959,100.186,67.225z"/>
<path fill="#323333" d="M78.484,50.395V22.521C78.484,14.505,71.98,8,63.96,8H14.522C6.501,8,0,14.505,0,22.521v27.875
	c0,6.736,4.59,12.381,10.808,14.027c-1.028,3.019-3.331,6.313-7.768,9.656c-1.161,0.877,0.423,1.854,3.622,1.854
	c4.958,0,13.79-2.343,22.293-11.015H63.96C71.98,64.918,78.484,58.418,78.484,50.395z"/>
</svg>
