<?xml version="1.0" encoding="utf-8"?>
<!-- Generator: Adobe Illustrator 15.0.2, SVG Export Plug-In  -->
<!DOCTYPE svg PUBLIC "-//W3C//DTD SVG 1.1//EN" "http://www.w3.org/Graphics/SVG/1.1/DTD/svg11.dtd" [
	<!ENTITY ns_flows "http://ns.adobe.com/Flows/1.0/">
]>
<svg version="1.1"
	 xmlns="http://www.w3.org/2000/svg" xmlns:xlink="http://www.w3.org/1999/xlink" xmlns:a="http://ns.adobe.com/AdobeSVGViewerExtensions/3.0/"
	 x="0px" y="0px" width="100px" height="100px" viewBox="-0.792 0 100 100" enable-background="new -0.792 0 100 100"
	 xml:space="preserve">
<defs>
</defs>
<polygon fill-rule="evenodd" clip-rule="evenodd" fill="#323333" points="14.176,45.414 13.987,44.83 13.835,44.063 13.729,43.642 
	13.729,43.114 13.729,42.484 13.729,41.915 13.911,41.24 14.101,40.519 14.344,39.771 14.674,38.933 15.11,38.06 15.725,37.187 
	15.725,36.576 15.786,36.003 15.876,35.225 16.143,34.356 16.385,33.412 16.579,32.975 16.803,32.573 17.091,32.122 17.402,31.792 
	17.402,31.176 17.402,30.486 17.402,29.629 17.584,28.521 17.767,27.23 18.093,25.682 18.541,24.081 18.875,23.192 19.205,22.232 
	19.565,21.333 19.997,20.373 20.438,19.322 20.946,18.336 21.516,17.28 22.236,16.233 22.566,15.634 22.923,15.137 23.694,14.025 
	24.482,12.917 25.386,11.778 26.35,10.663 27.397,9.57 28.49,8.447 29.811,7.232 30.653,6.497 31.674,5.7 32.709,4.994 
	33.833,4.318 34.911,3.719 36.125,3.226 37.415,2.611 38.697,2.189 39.979,1.753 41.361,1.321 42.743,0.99 44.199,0.721 
	45.671,0.479 47.122,0.285 48.578,0.087 50.127,0 51.599,0 53.124,0 54.703,0 56.229,0.193 57.761,0.376 59.324,0.539 60.773,0.888 
	62.307,1.214 63.745,1.586 65.32,2.011 66.762,2.52 68.144,3.104 69.615,3.719 70.963,4.394 72.269,5.146 73.547,5.973 
	74.655,6.736 75.164,7.172 75.702,7.483 76.728,8.356 77.593,9.198 78.45,10.067 79.292,11.027 79.982,11.957 80.802,12.917 
	81.379,13.949 81.96,14.867 82.578,15.934 83.087,16.863 83.952,18.829 84.377,19.846 84.707,20.794 85.037,21.812 85.333,22.775 
	85.545,23.599 85.811,24.574 86.281,26.312 86.582,27.83 86.775,29.302 86.942,30.486 87.208,32.284 87.268,32.573 87.48,32.899 
	88.05,33.833 88.414,34.458 88.741,35.123 89.158,35.825 89.521,36.667 89.757,37.536 90.016,38.481 90.213,39.457 90.305,39.934 
	90.38,40.519 90.38,41.031 90.305,41.543 90.305,42.173 90.151,42.788 89.88,43.972 89.567,44.571 89.34,45.247 89.34,45.414 
	89.445,45.622 89.757,46.12 91.108,48.116 92.179,49.611 92.688,50.62 93.378,51.713 93.978,52.912 94.668,54.202 95.358,55.645 
	96.136,57.279 96.572,58.285 96.975,59.257 97.324,60.296 97.665,61.223 97.924,62.201 98.189,63.116 98.522,64.902 98.789,66.731 
	98.971,68.349 98.971,69.236 98.971,69.958 98.971,70.632 98.85,71.445 98.674,72.837 98.432,74.098 98.06,75.235 97.924,75.702 
	97.665,76.257 97.445,76.647 97.156,77.129 96.898,77.429 96.572,77.82 96.284,78.131 95.974,78.404 95.601,78.567 95.268,78.729 
	94.994,78.821 94.755,78.821 94.576,78.821 94.307,78.729 93.795,78.48 93.56,78.313 93.317,78.131 93.047,77.892 92.777,77.623 
	92.33,77.129 91.799,76.423 91.382,75.702 90.965,75.118 90.558,74.442 89.985,73.244 89.34,71.995 89.264,71.953 89.158,71.953 
	88.893,72.147 88.741,72.477 88.49,72.879 88.05,74.098 87.39,75.824 86.54,77.892 85.902,78.929 85.23,80.006 84.437,81.22 
	83.595,82.411 83.162,82.95 82.64,83.535 81.436,84.718 81.543,84.825 81.705,84.991 82.305,85.348 84.81,86.548 85.902,87.162 
	86.942,87.762 87.974,88.513 88.893,89.294 89.34,89.641 89.673,90.046 90.016,90.509 90.305,91.021 90.456,91.441 90.646,91.95 
	90.722,92.383 90.812,92.896 90.722,93.24 90.722,93.583 90.646,93.946 90.456,94.273 90.38,94.53 90.213,94.843 89.757,95.461 
	89.34,95.958 89.013,96.33 88.741,96.604 88.05,97.112 87.268,97.549 86.433,97.97 85.545,98.371 84.544,98.758 84.012,98.925 
	83.535,99.063 82.381,99.331 81.182,99.585 79.982,99.844 78.678,100.052 77.326,100.109 75.945,100.276 74.578,100.276 
	73.137,100.276 71.657,100.276 70.109,100.185 68.667,100.052 67.118,99.844 65.579,99.677 63.954,99.449 62.383,99.063 
	60.85,98.758 59.324,98.326 57.761,97.772 56.229,97.306 55.424,97.036 54.703,96.777 54.247,96.604 53.8,96.512 53.216,96.512 
	52.524,96.512 51.053,96.406 50.305,96.33 49.345,96.224 48.729,96.777 47.888,97.306 46.75,97.862 45.489,98.554 44.724,98.925 
	43.926,99.226 42.157,99.946 41.198,100.185 40.192,100.458 38.796,100.724 37.923,100.8 36.997,100.875 36.033,100.982 
	34.911,101.028 33.833,101.028 32.709,101.028 30.323,101.028 27.731,100.982 25.219,100.724 23.944,100.55 22.715,100.367 
	21.516,100.185 20.316,99.946 19.205,99.585 18.093,99.331 17.091,98.925 16.143,98.554 15.262,98.129 14.496,97.665 13.729,97.112 
	13.471,96.839 13.129,96.512 12.871,96.224 12.636,95.897 12.424,95.563 12.256,95.236 12.018,94.53 11.93,94.171 11.824,93.765 
	11.824,93.394 11.93,92.971 11.93,92.55 12.018,92.129 12.018,91.874 12.018,91.29 12.06,90.839 12.256,90.327 12.424,89.818 
	12.727,89.204 12.947,88.965 13.129,88.695 13.607,88.111 13.987,87.807 14.344,87.599 14.674,87.329 15.201,87.162 15.618,86.911 
	16.143,86.638 16.742,86.46 17.342,86.277 18.032,86.13 18.692,86.039 19.474,85.933 20.316,85.872 20.54,85.796 20.586,85.796 
	20.692,85.705 20.692,85.606 20.54,85.394 20.088,85.182 18.965,84.209 18.214,83.61 17.342,82.844 16.461,81.99 15.542,80.894 
	14.496,79.664 14.101,79.003 13.577,78.313 13.129,77.516 12.727,76.647 12.181,75.824 11.824,74.875 11.403,73.934 10.982,72.879 
	10.671,71.878 10.382,70.632 10.291,70.588 10.204,70.588 10.158,70.496 10.052,70.496 9.874,70.588 9.783,70.632 9.661,70.842 
	9.615,71.096 9.524,71.323 9.365,71.695 8.849,72.613 8.583,73.168 8.162,73.646 7.711,74.23 7.217,74.875 6.694,75.447 
	6.079,76.002 5.506,76.526 4.879,76.933 4.189,77.368 3.529,77.623 2.748,77.82 1.981,77.892 1.905,77.892 1.799,77.892 
	1.624,77.82 1.487,77.516 1.259,77.368 0.964,76.647 0.782,76.257 0.584,75.702 0.421,75.118 0.334,74.549 0.091,73.244 0,72.477 
	0,71.695 0,69.958 0.091,68.083 0.243,67.119 0.421,66.133 0.584,65.066 0.873,64.076 1.199,62.934 1.533,61.825 1.981,60.684 
	2.402,59.591 2.983,58.479 3.529,57.279 4.189,56.152 4.967,54.938 5.76,53.846 6.587,52.631 7.278,51.789 8.162,50.813 
	9.092,49.838 9.524,49.375 10.052,48.848 10.814,48.184 11.596,47.512 12.871,46.37 13.835,45.668 "/>
</svg>
