<?xml version="1.0" encoding="utf-8"?>
<!-- Generator: Adobe Illustrator 15.0.2, SVG Export Plug-In  -->
<!DOCTYPE svg PUBLIC "-//W3C//DTD SVG 1.1//EN" "http://www.w3.org/Graphics/SVG/1.1/DTD/svg11.dtd" [
	<!ENTITY ns_flows "http://ns.adobe.com/Flows/1.0/">
]>
<svg version="1.1"
	 xmlns="http://www.w3.org/2000/svg" xmlns:xlink="http://www.w3.org/1999/xlink" xmlns:a="http://ns.adobe.com/AdobeSVGViewerExtensions/3.0/"
	 x="0px" y="0px" width="100px" height="100px" viewBox="-16 0 100 100" enable-background="new -16 0 100 100"
	 xml:space="preserve">
<defs>
</defs>
<path fill="#3EB921" d="M55.161,74.256c-5.24,0-9.736,3.168-11.688,7.689H25.989c-7.489,0-8.186-6.324-8.221-8.221V53.207
	c2.285,1.059,5.004,1.688,8.221,1.688h17.482c1.952,4.523,6.448,7.691,11.688,7.691c7.028,0,12.729-5.697,12.729-12.729
	c0-7.027-5.699-12.729-12.729-12.729c-5.24,0-9.736,3.168-11.688,7.691H25.989c-7.489,0-8.186-6.325-8.221-8.221V24.419
	c4.523-1.952,7.69-6.45,7.69-11.69C25.458,5.702,19.759,0,12.729,0C5.7,0,0,5.702,0,12.729c0,5.24,3.167,9.736,7.69,11.69v49.306
	c0,7.355,4.873,18.299,18.299,18.299h17.482c1.952,4.523,6.448,7.691,11.688,7.691c7.028,0,12.729-5.697,12.729-12.73
	C67.891,79.957,62.189,74.256,55.161,74.256z M55.161,42.515c4.055,0,7.344,3.288,7.344,7.342c0,4.057-3.289,7.346-7.344,7.346
	c-4.056,0-7.345-3.289-7.345-7.346C47.816,45.803,51.105,42.515,55.161,42.515z M5.386,12.729c0-4.054,3.289-7.342,7.343-7.342
	c4.056,0,7.344,3.288,7.344,7.342c0,4.058-3.288,7.345-7.344,7.345C8.675,20.074,5.386,16.787,5.386,12.729z M55.161,94.33
	c-4.056,0-7.345-3.289-7.345-7.346c0-4.053,3.289-7.342,7.345-7.342c4.055,0,7.344,3.289,7.344,7.342
	C62.505,91.041,59.216,94.33,55.161,94.33z"/>
</svg>
