<?xml version="1.0" encoding="utf-8"?>
<!-- Generator: Adobe Illustrator 15.1.0, SVG Export Plug-In . SVG Version: 6.00 Build 0)  -->
<!DOCTYPE svg PUBLIC "-//W3C//DTD SVG 1.1//EN" "http://www.w3.org/Graphics/SVG/1.1/DTD/svg11.dtd">
<svg version="1.1" id="图层_1" xmlns="http://www.w3.org/2000/svg" xmlns:xlink="http://www.w3.org/1999/xlink" x="0px" y="0px"
	 width="100px" height="100px" viewBox="0 0 100 100" enable-background="new 0 0 100 100" xml:space="preserve">
<path fill="#323333" d="M72.738,28.805c0,1.045,0.801,1.9,1.787,1.9c0.013,0,0.023,0,0.034,0c0.367,5.01,4.316,10.019,9.134,10.019
	c4.818,0,8.763-5.009,9.136-10.019c0.009,0,0.019,0,0.026,0c0.991,0,1.796-0.854,1.796-1.9c0-0.773-0.438-1.438-1.061-1.737
	c0.359-1.12,0.559-2.325,0.559-3.583c0-6.123-4.679-11.087-10.457-11.087c-5.776,0-10.458,4.964-10.458,11.087
	c0,1.258,0.199,2.464,0.562,3.583C73.169,27.367,72.738,28.032,72.738,28.805z"/>
<path fill="#323333" d="M5.349,28.805c0,1.045,0.801,1.9,1.788,1.9c0.014,0,0.022,0,0.037,0c0.368,5.01,4.312,10.019,9.134,10.019
	c4.816,0,8.762-5.009,9.134-10.019c0.009,0,0.018,0,0.027,0c0.993,0,1.794-0.854,1.794-1.9c0-0.773-0.437-1.438-1.057-1.737
	c0.357-1.12,0.557-2.325,0.557-3.583c0-6.123-4.682-11.087-10.456-11.087c-5.777,0-10.461,4.964-10.461,11.087
	c0,1.258,0.199,2.464,0.562,3.583C5.783,27.367,5.349,28.032,5.349,28.805z"/>
<path fill="#323333" d="M31.021,38.611c0,1.797,1.366,3.25,3.056,3.25c0.021,0,0.039-0.005,0.054-0.005
	c0.238,3.212,1.335,6.417,3.051,9.182c0.679,1.09,1.461,2.096,2.315,3.018c2.743,2.958,6.317,4.914,10.235,4.914
	c4.186,0,7.983-2.227,10.789-5.524c0.342-0.402,0.67-0.82,0.981-1.254c2.155-2.996,3.558-6.661,3.833-10.336
	c0.014,0,0.033,0.005,0.054,0.005c1.688,0,3.058-1.453,3.058-3.25c0-1.316-0.745-2.452-1.813-2.959
	c0.617-1.921,0.957-3.973,0.957-6.118c0-10.462-7.994-18.941-17.859-18.941s-17.859,8.479-17.859,18.942
	c0,2.145,0.342,4.197,0.957,6.118C31.763,36.159,31.021,37.295,31.021,38.611z"/>
<path fill="#323333" d="M63.059,64.295c-0.239-0.136-0.514-0.198-0.791-0.198h-0.87c-0.273,0-0.546,0.063-0.784,0.193
	c-2.895,1.553-6.858,2.439-10.881,2.439c-4.023,0-7.987-0.891-10.878-2.439c-0.244-0.131-0.516-0.193-0.788-0.193h-0.634
	c-0.126,0-0.258,0.012-0.382,0.04c-9.826,2.326-18.96,7.386-26.415,14.626c-0.326,0.311-0.509,0.741-0.509,1.19v5.951
	c0,0.916,0.744,1.66,1.667,1.66h75.882c0.917,0,1.661-0.744,1.661-1.66v-5.951c0-0.446-0.181-0.877-0.505-1.19
	C81.537,71.678,72.634,66.686,63.059,64.295z"/>
<path fill="#323333" d="M0,57.988h36.919c-3.147-3.091-5.451-7.154-6.606-11.376c-1.993-0.964-4.071-1.722-6.204-2.251
	c-0.142-0.076-0.304-0.122-0.464-0.122h-0.509c-0.159,0-0.317,0.043-0.459,0.119c-1.697,0.906-4.014,1.431-6.369,1.431
	c-2.355,0-4.682-0.525-6.374-1.431c-0.142-0.076-0.301-0.119-0.461-0.119h-0.37c-0.074,0-0.151,0.012-0.224,0.025
	C5.767,45.003,2.783,46.223,0,47.844V57.988z"/>
<path fill="#323333" d="M100,47.841c-2.672-1.556-5.529-2.74-8.503-3.48c-0.142-0.076-0.302-0.122-0.463-0.122h-0.512
	c-0.159,0-0.315,0.043-0.462,0.119c-1.691,0.906-4.009,1.431-6.366,1.431c-2.354,0-4.679-0.525-6.37-1.431
	c-0.145-0.076-0.305-0.119-0.462-0.119h-0.368c-0.076,0-0.153,0.012-0.225,0.025c-2.495,0.592-4.905,1.504-7.202,2.67
	c-1.183,4.113-3.455,8.041-6.522,11.056H100V47.841z"/>
</svg>
