<?xml version="1.0" encoding="utf-8"?>
<!-- Generator: Adobe Illustrator 15.0.2, SVG Export Plug-In . SVG Version: 6.00 Build 0)  -->
<!DOCTYPE svg PUBLIC "-//W3C//DTD SVG 1.1//EN" "http://www.w3.org/Graphics/SVG/1.1/DTD/svg11.dtd">
<svg version="1.1" id="图层_1" xmlns="http://www.w3.org/2000/svg" xmlns:xlink="http://www.w3.org/1999/xlink" x="0px" y="0px"
	 width="100px" height="100px" viewBox="0 0 100 100" enable-background="new 0 0 100 100" xml:space="preserve">
<path fill="#323333" d="M95.236,43.929L95.236,43.929L95.236,43.929c0-0.192-0.021-0.382-0.056-0.567
	c-0.012-0.065-0.029-0.126-0.046-0.188c-0.031-0.12-0.065-0.238-0.109-0.354c-0.023-0.066-0.049-0.13-0.079-0.192
	c-0.053-0.116-0.117-0.231-0.186-0.342c-0.027-0.047-0.054-0.096-0.081-0.138c-0.107-0.154-0.221-0.293-0.354-0.426
	c-0.024-0.025-0.059-0.05-0.087-0.076c-0.09-0.081-0.18-0.166-0.274-0.241L51.958,10.373c-1.108-0.82-2.618-0.82-3.729,0
	L6.226,41.405c-0.094,0.069-0.175,0.146-0.257,0.226c-0.037,0.032-0.076,0.06-0.111,0.096c-0.129,0.129-0.243,0.268-0.343,0.418
	c-0.036,0.047-0.064,0.103-0.097,0.152c-0.064,0.107-0.125,0.215-0.175,0.328c-0.028,0.065-0.057,0.133-0.082,0.2
	c-0.043,0.115-0.078,0.226-0.108,0.343c-0.014,0.068-0.031,0.129-0.045,0.201c-0.033,0.171-0.051,0.351-0.055,0.529
	c0,0.012-0.004,0.021-0.004,0.032v51.024c0,1.733,1.407,3.138,3.139,3.138h84.009c1.733,0,3.138-1.404,3.138-3.138V43.937
	C95.236,43.933,95.236,43.931,95.236,43.929z M11.227,91.813V48.307l37.852,25.469c0.317,0.214,0.685,0.321,1.049,0.321
	c0.367,0,0.735-0.108,1.054-0.323l37.781-25.46v43.499H11.227z"/>
</svg>
