<?xml version="1.0" encoding="utf-8"?>
<!-- Generator: Adobe Illustrator 15.0.2, SVG Export Plug-In . SVG Version: 6.00 Build 0)  -->
<!DOCTYPE svg PUBLIC "-//W3C//DTD SVG 1.1//EN" "http://www.w3.org/Graphics/SVG/1.1/DTD/svg11.dtd">
<svg version="1.1" id="图层_1" xmlns="http://www.w3.org/2000/svg" xmlns:xlink="http://www.w3.org/1999/xlink" x="0px" y="0px"
	 width="100px" height="100px" viewBox="0 0 100 100" enable-background="new 0 0 100 100" xml:space="preserve">
<path fill="#323333" d="M80.016,26.615c-0.783,0-1.567,0.043-2.35,0.123c-2.591-8.483-10.477-14.513-19.624-14.513
	c-1.065,0-2.543,0.087-3.871,0.253C48.957,8.066,43.474,6,37.035,6C23.319,6,12.167,15.86,9.901,29.693
	C3.913,33.402,0,39.678,0,45.799c0,10.578,8.79,19.186,19.59,19.186h18.828V58.07H19.59c-7.831,0-12.679-6.369-12.679-12.271
	c0-4.061,3.189-8.53,7.758-10.864l1.668-0.855l0.194-1.858C17.712,21.03,26.336,12.91,37.035,12.91
	c5.188,0,9.422,1.783,13.725,5.781l1.352,1.26l1.8-0.428c0.923-0.222,2.942-0.387,4.132-0.387c6.891,0,12.701,5.159,13.516,11.996
	l0.471,3.946l3.845-1.014c1.343-0.354,2.737-0.537,4.144-0.537c7.274,0,13.655,5.735,13.655,12.272
	c0,6.537-6.381,12.271-13.655,12.271H60.752v6.914h19.264c11.149,0,20.567-8.784,20.567-19.186
	C100.583,35.403,91.165,26.615,80.016,26.615z"/>
<path fill="#323333" d="M35.577,72.093c-1.147,0-2.076,0.929-2.076,2.072c0,0.565,0.226,1.078,0.594,1.452l13.691,18.85
	c0.39,0.539,1.014,0.854,1.678,0.854s1.288-0.313,1.679-0.854l13.86-19.083c0.457-0.628,0.524-1.464,0.17-2.161
	c-0.353-0.693-1.065-1.13-1.846-1.13h-8.468V48.388c0-1.145-0.926-2.072-2.071-2.072H46.14c-1.143,0-2.072,0.927-2.072,2.072v23.705
	h-8.465C35.593,72.093,35.585,72.093,35.577,72.093z"/>
</svg>
