<?xml version="1.0" encoding="utf-8"?>
<!-- Generator: Adobe Illustrator 15.0.2, SVG Export Plug-In . SVG Version: 6.00 Build 0)  -->
<!DOCTYPE svg PUBLIC "-//W3C//DTD SVG 1.1//EN" "http://www.w3.org/Graphics/SVG/1.1/DTD/svg11.dtd">
<svg version="1.1" id="图层_1" xmlns="http://www.w3.org/2000/svg" xmlns:xlink="http://www.w3.org/1999/xlink" x="0px" y="0px"
	 width="100px" height="100px" viewBox="0 0 100 100" enable-background="new 0 0 100 100" xml:space="preserve">
<g>
	<path fill="#323333" d="M50.691,21.974c-32.802,0-50,24.168-50,28s17.197,28,50,28c32.801,0,50-24.168,50-28
		S83.492,21.974,50.691,21.974z M50.691,71.513c-12.273,0-22.222-9.643-22.222-21.539s9.949-21.539,22.222-21.539
		c12.273,0,22.223,9.642,22.223,21.539S62.965,71.513,50.691,71.513z M50.691,49.974c-2.035-2.234,3.316-10.77,0-10.77
		c-6.136,0-11.111,4.822-11.111,10.77s4.975,10.77,11.111,10.77c6.135,0,11.111-4.822,11.111-10.77
		C61.803,47.241,52.422,51.872,50.691,49.974z"/>
</g>
</svg>
