<?xml version="1.0" encoding="utf-8"?>
<!-- Generator: Adobe Illustrator 15.0.2, SVG Export Plug-In  -->
<!DOCTYPE svg PUBLIC "-//W3C//DTD SVG 1.1//EN" "http://www.w3.org/Graphics/SVG/1.1/DTD/svg11.dtd" [
	<!ENTITY ns_flows "http://ns.adobe.com/Flows/1.0/">
]>
<svg version="1.1"
	 xmlns="http://www.w3.org/2000/svg" xmlns:xlink="http://www.w3.org/1999/xlink" xmlns:a="http://ns.adobe.com/AdobeSVGViewerExtensions/3.0/"
	 x="0px" y="0px" width="100px" height="100px" viewBox="-1.986 -2 100 100" enable-background="new -1.986 -2 100 100"
	 xml:space="preserve">
<defs>
</defs>
<path fill="#9F9F9F" d="M40.081,46.171c-10.126,1.006-17.805,7.242-17.147,13.928c0.658,6.688,9.399,11.287,19.527,10.285
	c10.13-1.008,17.805-7.244,17.148-13.932C58.953,49.767,50.21,45.162,40.081,46.171z M39.742,66.285
	c-4.08,0.82-7.942-1.271-8.625-4.671c-0.684-3.399,2.069-6.82,6.149-7.641c4.079-0.82,7.941,1.271,8.625,4.67
	C46.574,62.045,43.82,65.466,39.742,66.285z"/>
<path fill="#9F9F9F" d="M48,0C21.49,0,0,21.49,0,48c0,26.511,21.49,48,48,48c26.512,0,48-21.489,48-48C96,21.49,74.512,0,48,0z
	 M42.427,75c-12.692,0-25.665-6.889-25.665-17.187c0-5.383,3.35-11.61,9.12-17.484c7.708-7.842,16.694-11.414,20.072-7.973
	c1.489,1.517,1.636,4.141,0.677,7.277c-0.5,1.579,1.457,0.705,1.457,0.709c6.227-2.656,11.661-2.811,13.647,0.076
	c1.06,1.541,0.957,3.698-0.02,6.201c-0.451,1.15,0.14,1.332,1.002,1.594c3.51,1.107,7.416,3.785,7.416,8.507
	C70.134,64.532,59.064,75,42.427,75z M68.796,42.1c-1.188,0.244-2.35-0.521-2.595-1.71c-0.652-3.188-3.165-5.699-6.354-6.352
	c-1.187-0.246-1.952-1.407-1.707-2.596c0.243-1.188,1.406-1.953,2.593-1.709c4.904,1.004,8.77,4.869,9.773,9.772
	C70.75,40.694,69.984,41.854,68.796,42.1z M79.238,39.837c0,1.215-0.983,2.197-2.197,2.197c-1.213,0-2.197-0.982-2.197-2.197
	c0-7.976-6.466-14.441-14.442-14.441c-1.214,0-2.197-0.984-2.197-2.197c0-1.215,0.983-2.198,2.197-2.198
	c10.401,0,18.832,8.429,18.837,18.829C79.238,39.832,79.238,39.837,79.238,39.837z"/>
</svg>
