<?xml version="1.0" encoding="utf-8"?>
<!-- Generator: Adobe Illustrator 15.0.2, SVG Export Plug-In . SVG Version: 6.00 Build 0)  -->
<!DOCTYPE svg PUBLIC "-//W3C//DTD SVG 1.1//EN" "http://www.w3.org/Graphics/SVG/1.1/DTD/svg11.dtd">
<svg version="1.1" id="图层_1" xmlns="http://www.w3.org/2000/svg" xmlns:xlink="http://www.w3.org/1999/xlink" x="0px" y="0px"
	 width="100px" height="100px" viewBox="0 0 100 100" enable-background="new 0 0 100 100" xml:space="preserve">
<path fill="#323333" d="M17.331,29.285h20.935V8.331h34.878v28.246c1.537-0.476,3.172-0.734,4.867-0.734
	c0.069,0,0.156-0.001,0.234-0.001c0.021,0,0.046,0,0.066,0c0.027,0,0.055-0.004,0.078-0.004c0.074,0,0.146,0.005,0.227,0.005
	c0.979,0,1.928,0.102,2.854,0.265V0h-51.54v0.063L9,20.954V100h42.622v-8.331H17.331V29.285z"/>
<g enable-background="new    ">
	<path fill="#323333" d="M101.998,99.889h-13.32l-9.455-15.04c-0.573-0.859-1.218-1.934-1.934-3.223
		c-0.43,1.004-1.004,2.078-1.719,3.223l-9.453,15.04H53.655l16.759-23.634L54.515,52.62h12.892l7.949,14.181
		c0.43,0.574,1.001,1.504,1.719,2.793c0.286,0.574,0.501,1.004,0.645,1.289c1.289-2.578,2.005-3.938,2.149-4.082l7.735-14.181
		h12.676L84.595,76.47L101.998,99.889z"/>
</g>
<rect x="73.167" y="35.767" fill="#323333" width="8.306" height="10.729"/>
</svg>
