<?xml version="1.0" encoding="utf-8"?>
<!-- Generator: Adobe Illustrator 15.0.2, SVG Export Plug-In  -->
<!DOCTYPE svg PUBLIC "-//W3C//DTD SVG 1.1//EN" "http://www.w3.org/Graphics/SVG/1.1/DTD/svg11.dtd" [
	<!ENTITY ns_flows "http://ns.adobe.com/Flows/1.0/">
]>
<svg version="1.1"
	 xmlns="http://www.w3.org/2000/svg" xmlns:xlink="http://www.w3.org/1999/xlink" xmlns:a="http://ns.adobe.com/AdobeSVGViewerExtensions/3.0/"
	 x="0px" y="0px" width="100px" height="100px" viewBox="-2.394 -1.135 100 100" enable-background="new -2.394 -1.135 100 100"
	 xml:space="preserve">
<defs>
</defs>
<path fill="#323333" d="M69.517,66.341c-0.286,0.464-0.75,0.789-1.279,0.901c-0.144,0.03-0.286,0.046-0.43,0.046
	c-0.393,0-0.781-0.118-1.118-0.339L44.431,52.039c-0.191-0.097-0.369-0.225-0.521-0.374c-0.372-0.376-0.588-0.894-0.588-1.426
	V24.006c0-0.532,0.216-1.051,0.588-1.426c0.377-0.375,0.894-0.59,1.424-0.59h5.286c0.529,0,1.049,0.215,1.423,0.59
	s0.588,0.894,0.588,1.426V46.22L71.74,59.127c0.897,0.604,1.155,1.816,0.579,2.733L69.517,66.341z"/>
<path fill="#323333" d="M48.304,0C21.626,0,0,21.623,0,48.303C0,74.98,21.626,96.604,48.304,96.604
	c26.674,0,48.302-21.624,48.302-48.301C96.606,21.623,74.978,0,48.304,0z M48.304,84.529c-19.977,0-36.229-16.25-36.229-36.226
	c0-19.978,16.253-36.229,36.229-36.229c19.974,0,36.229,16.251,36.229,36.229C84.533,68.279,68.278,84.529,48.304,84.529z"/>
<path fill="#323333" d="M71.74,59.127L52.63,46.22V24.006c0-0.532-0.214-1.051-0.588-1.426s-0.894-0.59-1.423-0.59h-5.286
	c-0.531,0-1.047,0.215-1.424,0.59c-0.372,0.375-0.588,0.894-0.588,1.426v26.232c0,0.532,0.216,1.05,0.588,1.426
	c0.153,0.149,0.33,0.277,0.521,0.374L66.69,66.95c0.337,0.221,0.726,0.339,1.118,0.339c0.144,0,0.286-0.016,0.43-0.046
	c0.529-0.112,0.993-0.438,1.279-0.901l2.802-4.48C72.895,60.944,72.637,59.731,71.74,59.127z"/>
</svg>
