<?xml version="1.0" encoding="utf-8"?>
<!-- Generator: Adobe Illustrator 15.0.2, SVG Export Plug-In . SVG Version: 6.00 Build 0)  -->
<!DOCTYPE svg PUBLIC "-//W3C//DTD SVG 1.1//EN" "http://www.w3.org/Graphics/SVG/1.1/DTD/svg11.dtd">
<svg version="1.1" id="图层_1" xmlns="http://www.w3.org/2000/svg" xmlns:xlink="http://www.w3.org/1999/xlink" x="0px" y="0px"
	 width="100px" height="100px" viewBox="0 0 100 100" enable-background="new 0 0 100 100" xml:space="preserve">
<path fill="#323333" d="M78.346,75.772c-13.121-4.781-17.313-8.814-17.313-17.451c0-5.186,4.006-3.491,5.765-12.986
	c0.729-3.938,4.27-0.063,4.946-9.055c0-3.584-1.933-4.474-1.933-4.474s0.981-5.303,1.365-9.384C71.652,17.338,68.238,4.2,50.029,4.2
	c-18.21,0-21.625,13.138-21.147,18.222c0.385,4.081,1.366,9.384,1.366,9.384s-1.931,0.89-1.931,4.474
	c0.676,8.991,4.214,5.116,4.944,9.055c1.761,9.495,5.765,7.8,5.765,12.986c0,8.637-4.191,12.67-17.312,17.451
	C8.551,80.568,0,85.46,0,88.794S0,100,0,100h50.029h50.03c0,0,0-7.872,0-11.206S91.507,80.568,78.346,75.772z"/>
</svg>
