<?xml version="1.0" encoding="utf-8"?>
<!-- Generator: Adobe Illustrator 15.0.2, SVG Export Plug-In  -->
<!DOCTYPE svg PUBLIC "-//W3C//DTD SVG 1.1//EN" "http://www.w3.org/Graphics/SVG/1.1/DTD/svg11.dtd" [
	<!ENTITY ns_flows "http://ns.adobe.com/Flows/1.0/">
]>
<svg version="1.1"
	 xmlns="http://www.w3.org/2000/svg" xmlns:xlink="http://www.w3.org/1999/xlink" xmlns:a="http://ns.adobe.com/AdobeSVGViewerExtensions/3.0/"
	 x="0px" y="0px" width="100px" height="100px" viewBox="0 -13.603 100 100" enable-background="new 0 -13.603 100 100"
	 xml:space="preserve">
<defs>
</defs>
<path fill="#323333" d="M0,0v75.07h100V0H0z M92.658,67.729H7.343V7.343h85.315V67.729z"/>
<path fill="#323333" d="M69.799,18.974c0-4.1-3.324-7.425-7.426-7.425c-4.1,0-7.424,3.325-7.424,7.425
	c0,3.01,1.795,5.597,4.369,6.762c-0.703,6.025-4.59,7.242-10.197,8.995c-2.718,0.849-5.883,1.841-8.557,3.763V25.792
	c2.638-1.14,4.485-3.762,4.485-6.818c0-4.1-3.324-7.425-7.424-7.425c-4.101,0-7.425,3.325-7.425,7.425
	c0,3.056,1.848,5.678,4.486,6.818v23.49c-2.638,1.139-4.486,3.76-4.486,6.816c0,4.1,3.324,7.424,7.425,7.424
	c4.1,0,7.424-3.324,7.424-7.424c0-3.012-1.794-5.596-4.369-6.762c0.704-6.027,4.59-7.242,10.194-8.994
	c5.705-1.781,13.383-4.184,14.338-14.508C67.904,24.719,69.799,22.067,69.799,18.974z M33.342,18.974
	c0-2.365,1.918-4.283,4.284-4.283c2.365,0,4.283,1.918,4.283,4.283c0,2.366-1.918,4.284-4.283,4.284
	C35.261,23.258,33.342,21.34,33.342,18.974z M37.626,60.381c-2.365,0-4.284-1.916-4.284-4.283c0-2.365,1.918-4.283,4.284-4.283
	c2.365,0,4.283,1.918,4.283,4.283C41.909,58.465,39.991,60.381,37.626,60.381z M62.373,23.258c-2.363,0-4.283-1.918-4.283-4.284
	c0-2.365,1.92-4.283,4.283-4.283c2.365,0,4.283,1.918,4.283,4.283C66.656,21.34,64.738,23.258,62.373,23.258z"/>
</svg>
