<?xml version="1.0" encoding="utf-8"?>
<!-- Generator: Adobe Illustrator 15.0.2, SVG Export Plug-In . SVG Version: 6.00 Build 0)  -->
<!DOCTYPE svg PUBLIC "-//W3C//DTD SVG 1.1//EN" "http://www.w3.org/Graphics/SVG/1.1/DTD/svg11.dtd">
<svg version="1.1" id="图层_1" xmlns="http://www.w3.org/2000/svg" xmlns:xlink="http://www.w3.org/1999/xlink" x="0px" y="0px"
	 width="100px" height="100px" viewBox="0 0 100 100" enable-background="new 0 0 100 100" xml:space="preserve">
<path fill="#323333" d="M57.009,72.848V27.497c5.095-2.199,8.661-7.263,8.661-13.162C65.67,6.417,59.252,0,51.335,0
	C43.419,0,37,6.417,37,14.335c0,5.899,3.568,10.963,8.661,13.162v45.351C40.568,75.044,37,80.107,37,86.009
	c0,7.915,6.419,14.335,14.335,14.335c7.917,0,14.335-6.42,14.335-14.335C65.67,80.107,62.104,75.044,57.009,72.848z M43.065,14.335
	c0-4.567,3.705-8.27,8.27-8.27c4.567,0,8.271,3.703,8.271,8.27s-3.703,8.27-8.271,8.27C46.77,22.604,43.065,18.902,43.065,14.335z
	 M51.335,94.277c-4.565,0-8.27-3.701-8.27-8.27s3.705-8.27,8.27-8.27c4.567,0,8.271,3.701,8.271,8.27S55.902,94.277,51.335,94.277z"
	/>
</svg>
