<?xml version="1.0" encoding="utf-8"?>
<!-- Generator: Adobe Illustrator 15.0.2, SVG Export Plug-In  -->
<!DOCTYPE svg PUBLIC "-//W3C//DTD SVG 1.1//EN" "http://www.w3.org/Graphics/SVG/1.1/DTD/svg11.dtd" [
	<!ENTITY ns_flows "http://ns.adobe.com/Flows/1.0/">
]>
<svg version="1.1"
	 xmlns="http://www.w3.org/2000/svg" xmlns:xlink="http://www.w3.org/1999/xlink" xmlns:a="http://ns.adobe.com/AdobeSVGViewerExtensions/3.0/"
	 x="0px" y="0px" width="100px" height="100px" viewBox="-1.782 -1.672 100 100" enable-background="new -1.782 -1.672 100 100"
	 xml:space="preserve">
<defs>
</defs>
<path fill="#9F9F9F" d="M48.09,47.679c-0.028,0-0.059,0-0.09-0.002c-0.03,0.002-0.061,0.002-0.089,0.002
	c-7.492,0-14.094-1.896-17.997,1.685c-2.338,2.15-3.322,4.74-3.322,7.531c0,11.647,9.333,13.079,21.319,13.079h0.179
	c11.984,0,21.319-1.432,21.319-13.079c0-2.791-0.984-5.381-3.322-7.531C62.184,45.782,55.583,47.679,48.09,47.679z M37.803,64.598
	c-2.281,0-4.131-2.561-4.131-5.72c0-3.157,1.85-5.716,4.131-5.716c2.282,0,4.132,2.559,4.132,5.716
	C41.935,62.037,40.085,64.598,37.803,64.598z M58.009,64.598c-2.282,0-4.133-2.561-4.133-5.72c0-3.157,1.851-5.716,4.133-5.716
	c2.279,0,4.129,2.559,4.129,5.716C62.138,62.037,60.288,64.598,58.009,64.598z"/>
<path fill="#9F9F9F" d="M48,0C21.49,0,0,21.49,0,48c0,26.512,21.49,48,48,48c26.513,0,48.001-21.488,48.001-48
	C96.001,21.49,74.513,0,48,0z M53.508,72.781c-1.081,0-3.234,0.002-5.508,0.005c-2.273-0.003-4.426-0.005-5.507-0.005
	c-4.783,0-23.729-0.365-23.729-23.203c0-5.254,1.802-9.098,4.749-12.299c-0.471-1.16-0.492-7.754,2.016-14.065
	c0,0,5.756,0.63,14.464,6.606c1.828-0.504,4.917-0.756,8.007-0.756s6.181,0.252,8.007,0.756c8.708-5.977,14.465-6.606,14.465-6.606
	c2.508,6.312,2.484,12.905,2.015,14.065c2.948,3.201,4.749,7.045,4.749,12.299C77.235,72.416,58.29,72.781,53.508,72.781z"/>
</svg>
