<?xml version="1.0" encoding="utf-8"?>
<!-- Generator: Adobe Illustrator 15.0.2, SVG Export Plug-In . SVG Version: 6.00 Build 0)  -->
<!DOCTYPE svg PUBLIC "-//W3C//DTD SVG 1.1//EN" "http://www.w3.org/Graphics/SVG/1.1/DTD/svg11.dtd">
<svg version="1.1" id="图层_1" xmlns="http://www.w3.org/2000/svg" xmlns:xlink="http://www.w3.org/1999/xlink" x="0px" y="0px"
	 width="100px" height="100px" viewBox="0 0 100 100" enable-background="new 0 0 100 100" xml:space="preserve">
<path fill="#323333" d="M97.031,21.602H42.645l-3.387-6.934C38.541,13.199,36.617,12,34.983,12H16.218
	c-1.632,0-3.562,1.198-4.286,2.663L8.5,21.602H4.007c-1.635,0-2.97,1.336-2.97,2.97v62.355c0,1.635,1.335,2.969,2.97,2.969H97.03
	c1.635,0,2.97-1.334,2.97-2.969V24.572C100,22.938,98.665,21.602,97.031,21.602z M91.749,81.646H9.286V29.815
	c2.824-0.27,5.335-1.979,6.611-4.555l2.476-5.01h14.43l2.43,4.974c1.384,2.833,4.26,4.627,7.413,4.627H91.75L91.749,81.646
	L91.749,81.646z"/>
</svg>
