<?xml version="1.0" encoding="utf-8"?>
<!-- Generator: Adobe Illustrator 15.0.2, SVG Export Plug-In . SVG Version: 6.00 Build 0)  -->
<!DOCTYPE svg PUBLIC "-//W3C//DTD SVG 1.1//EN" "http://www.w3.org/Graphics/SVG/1.1/DTD/svg11.dtd">
<svg version="1.1" id="图层_1" xmlns="http://www.w3.org/2000/svg" xmlns:xlink="http://www.w3.org/1999/xlink" x="0px" y="0px"
	 width="100px" height="100px" viewBox="0 0 100 100" enable-background="new 0 0 100 100" xml:space="preserve">
<path fill="#323333" d="M97.061,65.957h-5.979v-9.913c0-9.09-7.368-16.461-16.461-16.461c-0.079,0-0.149-0.005-0.224-0.005
	c-0.026,0-0.051,0.004-0.08,0.004c-0.021,0-0.045,0-0.067,0c-0.078,0-0.165,0.001-0.235,0.001c-9.092,0-16.455,7.374-16.455,16.461
	v9.913H51.73V100h45.332V65.957H97.061z M82.846,65.957H65.792v-9.913c0-4.53,3.687-8.222,8.22-8.222
	c0.131,0,0.401-0.005,0.401-0.005s0.137,0.005,0.206,0.005c4.535,0,8.227,3.685,8.227,8.222V65.957z"/>
<path fill="#323333" d="M13.331,29.285h20.935V8.331h34.878v28.246c1.537-0.476,3.172-0.734,4.867-0.734
	c0.071,0,0.158-0.001,0.236-0.001c0.023,0,0.046,0,0.068,0c0.027,0,0.053-0.004,0.078-0.004c0.074,0,0.146,0.005,0.225,0.005
	c0.979,0,1.928,0.102,2.855,0.265V0h-51.54v0.063L5,20.954V100h42.622v-8.331H13.331V29.285z"/>
</svg>
