<?xml version="1.0" encoding="utf-8"?>
<!-- Generator: Adobe Illustrator 15.0.2, SVG Export Plug-In . SVG Version: 6.00 Build 0)  -->
<!DOCTYPE svg PUBLIC "-//W3C//DTD SVG 1.1//EN" "http://www.w3.org/Graphics/SVG/1.1/DTD/svg11.dtd">
<svg version="1.1" id="图层_1" xmlns="http://www.w3.org/2000/svg" xmlns:xlink="http://www.w3.org/1999/xlink" x="0px" y="0px"
	 width="100px" height="100px" viewBox="0 0 100 100" enable-background="new 0 0 100 100" xml:space="preserve">
<path fill="#323333" d="M90.766,25.927c-0.955-0.962-2.133-1.44-3.515-1.44H67.725V4.963c0-1.386-0.478-2.562-1.439-3.522
	C65.32,0.485,64.15,0,62.762,0H13.478c-1.28,0.217-2.349,0.777-3.198,1.683C9.423,2.589,9,3.683,9,4.963v65.932
	c0,1.387,0.478,2.563,1.437,3.52c0.959,0.959,2.133,1.439,3.522,1.439h19.519v19.521c0,1.391,0.481,2.563,1.44,3.523
	c0.962,0.959,2.133,1.438,3.522,1.438h48.81c1.382,0,2.561-0.479,3.516-1.438c0.963-0.963,1.443-2.135,1.443-3.523V29.446
	C92.21,28.061,91.729,26.886,90.766,25.927z M37.803,24.487c-1.178,0.213-2.191,0.774-3.045,1.679c-0.853,0.908-1.28,2-1.28,3.28
	v36.646h-14.72V9.925h39.209v14.562H37.803z M82.445,90.415H43.239V34.247h39.207V90.415z"/>
</svg>
