<?xml version="1.0" encoding="utf-8"?>
<!-- Generator: Adobe Illustrator 15.0.2, SVG Export Plug-In . SVG Version: 6.00 Build 0)  -->
<!DOCTYPE svg PUBLIC "-//W3C//DTD SVG 1.1//EN" "http://www.w3.org/Graphics/SVG/1.1/DTD/svg11.dtd">
<svg version="1.1" id="图层_1" xmlns="http://www.w3.org/2000/svg" xmlns:xlink="http://www.w3.org/1999/xlink" x="0px" y="0px"
	 width="100px" height="100px" viewBox="0 0 100 100" enable-background="new 0 0 100 100" xml:space="preserve">
<path fill="#323333" d="M99,37.346c0-5.623-4.56-10.186-10.186-10.186c-5.625,0-10.186,4.563-10.186,10.186
	c0,4.129,2.461,7.678,5.996,9.278c-0.968,8.265-6.3,9.933-13.99,12.338c-3.729,1.164-8.071,2.526-11.741,5.162V46.699
	c3.62-1.564,6.155-5.161,6.155-9.353c0-5.623-4.561-10.186-10.187-10.186s-10.186,4.563-10.186,10.186
	c0,4.192,2.536,7.789,6.154,9.353v32.225c-3.619,1.563-6.154,5.157-6.154,9.352c0,5.623,4.56,10.187,10.186,10.187
	s10.187-4.563,10.187-10.187c0-4.129-2.465-7.678-5.996-9.276c0.966-8.267,6.297-9.937,13.988-12.338
	c7.825-2.445,18.357-5.739,19.668-19.903C96.402,45.227,99,41.592,99,37.346z M48.987,37.346c0-3.245,2.631-5.875,5.876-5.875
	s5.875,2.63,5.875,5.875c0,3.247-2.63,5.876-5.875,5.876S48.987,40.593,48.987,37.346z M54.863,94.15
	c-3.245,0-5.876-2.631-5.876-5.875c0-3.246,2.631-5.875,5.876-5.875s5.875,2.629,5.875,5.875
	C60.738,91.52,58.108,94.15,54.863,94.15z M88.814,43.223c-3.244,0-5.877-2.63-5.877-5.876c0-3.245,2.633-5.875,5.877-5.875
	s5.876,2.63,5.876,5.875C94.69,40.593,92.059,43.223,88.814,43.223z"/>
<path fill="#323333" d="M26.188,0v0.063L5.279,20.928v78.951h42.029c-3.288-1.617-5.745-4.654-6.562-8.32H13.6v-62.31h20.909V8.321
	h34.836v20.657h8.32V0H26.188z"/>
</svg>
