<?xml version="1.0" encoding="utf-8"?>
<!-- Generator: Adobe Illustrator 15.0.2, SVG Export Plug-In . SVG Version: 6.00 Build 0)  -->
<!DOCTYPE svg PUBLIC "-//W3C//DTD SVG 1.1//EN" "http://www.w3.org/Graphics/SVG/1.1/DTD/svg11.dtd">
<svg version="1.1" id="图层_1" xmlns="http://www.w3.org/2000/svg" xmlns:xlink="http://www.w3.org/1999/xlink" x="0px" y="0px"
	 width="100px" height="100px" viewBox="0 0 100 100" enable-background="new 0 0 100 100" xml:space="preserve">
<path fill="#323333" d="M47.06,91.337l42.39-41.563c0.585-0.575,0.917-1.354,0.925-2.168l0.336-34.16
	c0.007-0.817-0.309-1.603-0.879-2.187c-0.575-0.583-1.357-0.916-2.172-0.926L53.502,10c-0.816-0.01-1.604,0.309-2.188,0.881
	L8.926,52.443c-1.217,1.192-1.236,3.144-0.044,4.358l33.819,34.493C43.893,92.512,45.844,92.529,47.06,91.337z M67.232,22.546
	c3.061-3.001,7.973-2.955,10.978,0.108c3,3.06,2.95,7.975-0.108,10.976c-3.063,3.001-7.975,2.952-10.977-0.108
	C64.121,30.458,64.171,25.546,67.232,22.546z"/>
</svg>
