<?xml version="1.0" encoding="utf-8"?>
<!-- Generator: Adobe Illustrator 15.0.2, SVG Export Plug-In . SVG Version: 6.00 Build 0)  -->
<!DOCTYPE svg PUBLIC "-//W3C//DTD SVG 1.1//EN" "http://www.w3.org/Graphics/SVG/1.1/DTD/svg11.dtd">
<svg version="1.1" id="图层_1" xmlns="http://www.w3.org/2000/svg" xmlns:xlink="http://www.w3.org/1999/xlink" x="0px" y="0px"
	 width="100px" height="100px" viewBox="0 0 100 100" enable-background="new 0 0 100 100" xml:space="preserve">
<path fill="#323333" d="M71.161,74.256c-5.24,0-9.736,3.168-11.688,7.689H41.989c-7.489,0-8.186-6.324-8.221-8.221V53.207
	c2.285,1.059,5.004,1.688,8.221,1.688h17.481c1.953,4.523,6.449,7.691,11.689,7.691c7.029,0,12.729-5.697,12.729-12.729
	c0-7.027-5.699-12.729-12.729-12.729c-5.24,0-9.736,3.168-11.689,7.691H41.989c-7.489,0-8.186-6.325-8.221-8.221V24.419
	c4.523-1.952,7.69-6.45,7.69-11.69C41.458,5.702,35.759,0,28.729,0C21.7,0,16,5.702,16,12.729c0,5.24,3.167,9.736,7.69,11.69v49.306
	c0,7.355,4.873,18.299,18.299,18.299h17.481c1.953,4.523,6.449,7.691,11.689,7.691c7.029,0,12.729-5.697,12.729-12.73
	C83.891,79.957,78.189,74.256,71.161,74.256z M71.161,42.515c4.055,0,7.344,3.288,7.344,7.342c0,4.057-3.289,7.346-7.344,7.346
	c-4.056,0-7.345-3.289-7.345-7.346C63.816,45.803,67.105,42.515,71.161,42.515z M21.386,12.729c0-4.054,3.289-7.342,7.343-7.342
	c4.056,0,7.344,3.288,7.344,7.342c0,4.058-3.288,7.345-7.344,7.345C24.675,20.074,21.386,16.787,21.386,12.729z M71.161,94.33
	c-4.056,0-7.345-3.289-7.345-7.346c0-4.053,3.289-7.342,7.345-7.342c4.055,0,7.344,3.289,7.344,7.342
	C78.505,91.041,75.216,94.33,71.161,94.33z"/>
</svg>
