<?xml version="1.0" encoding="utf-8"?>
<!-- Generator: Adobe Illustrator 15.0.2, SVG Export Plug-In . SVG Version: 6.00 Build 0)  -->
<!DOCTYPE svg PUBLIC "-//W3C//DTD SVG 1.1//EN" "http://www.w3.org/Graphics/SVG/1.1/DTD/svg11.dtd">
<svg version="1.1" id="图层_1" xmlns="http://www.w3.org/2000/svg" xmlns:xlink="http://www.w3.org/1999/xlink" x="0px" y="0px"
	 width="100px" height="100px" viewBox="0 0 100 100" enable-background="new 0 0 100 100" xml:space="preserve">
<path fill="#323333" d="M83.35,14.718V9.386C83.35,4.136,80.036,1,74.486,1c-5.549,0-8.86,3.136-8.86,8.386v5.332h-6.005V9.386
	c0-5.25-3.313-8.386-8.857-8.386c-5.55,0-8.862,3.136-8.862,8.386v5.332h-6.004V9.386c0-5.25-3.313-8.386-8.862-8.386
	c-5.546,0-8.861,3.136-8.861,8.386v5.332H8v85.412h85.412V14.718H83.35z M70.372,9.386c0-2.591,1.187-3.641,4.114-3.641
	c2.93,0,4.117,1.05,4.117,3.641v14.262c0,2.59-1.188,3.641-4.117,3.641c-2.928,0-4.114-1.051-4.114-3.641V9.386z M46.644,9.386
	c0-2.591,1.189-3.641,4.118-3.641c2.928,0,4.116,1.05,4.116,3.641v14.262c0,2.59-1.188,3.641-4.116,3.641
	c-2.929,0-4.118-1.051-4.118-3.641V9.386z M22.919,9.386c0-2.591,1.186-3.641,4.115-3.641c2.93,0,4.116,1.05,4.116,3.641v14.262
	c0,2.59-1.186,3.641-4.116,3.641c-2.929,0-4.115-1.051-4.115-3.641V9.386z M86.293,93.014H15.117V33.698h71.176V93.014z"/>
<path fill="#323333" d="M50.908,70.184c0-4.523-3.051-7.027-8.387-8.556V61.52c4.792-1.634,7.407-4.25,7.407-8.334
	c0-4.142-4.087-7.411-11.112-7.411c-3.323,0-6.811,0.435-9.753,1.799l0.816,5.99c2.235-1.09,4.633-1.795,7.086-1.795
	c3.811,0,4.846,1.308,4.846,3.267c0,2.835-2.725,4.088-7.355,4.413v5.992c6.703,0.383,8.88,1.799,8.88,5.23
	c0,2.506-2.396,4.413-6.099,4.413c-3.054,0-5.45-0.437-8.336-1.526l-0.819,5.993c2.342,0.927,5.447,1.525,8.393,1.525
	C44.588,81.077,50.908,77.316,50.908,70.184z"/>
<polygon fill="#323333" points="63.375,55.2 63.375,80.532 70.676,80.532 70.676,46.321 67.027,46.321 56.564,51.494 57.382,57.486 
	"/>
</svg>
