<?xml version="1.0" encoding="utf-8"?>
<!-- Generator: Adobe Illustrator 15.0.2, SVG Export Plug-In  -->
<!DOCTYPE svg PUBLIC "-//W3C//DTD SVG 1.1//EN" "http://www.w3.org/Graphics/SVG/1.1/DTD/svg11.dtd" [
	<!ENTITY ns_flows "http://ns.adobe.com/Flows/1.0/">
]>
<svg version="1.1"
	 xmlns="http://www.w3.org/2000/svg" xmlns:xlink="http://www.w3.org/1999/xlink" xmlns:a="http://ns.adobe.com/AdobeSVGViewerExtensions/3.0/"
	 x="0px" y="0px" width="100px" height="100px" viewBox="-7.08 -1.452 100 100" enable-background="new -7.08 -1.452 100 100"
	 xml:space="preserve">
<defs>
</defs>
<path fill="#323333" d="M82.663,0H3.512C1.573,0,0,1.572,0,3.511v91.526c0,1.939,1.573,3.511,3.512,3.511h66.193
	c1.942,0,3.512-1.571,3.512-3.511V29.876h9.446c1.938,0,3.515-1.568,3.515-3.511V3.511C86.177,1.572,84.601,0,82.663,0z
	 M79.15,22.853h-9.445c-1.94,0-3.511,1.568-3.511,3.512v65.16H7.025V7.024H79.15V22.853z"/>
<path fill="#323333" d="M16.598,81.873h40.013c0.776,0,1.405-0.627,1.405-1.407c0-0.774-0.629-1.401-1.405-1.401H16.598
	c-0.773,0-1.403,0.627-1.403,1.401C15.194,81.246,15.825,81.873,16.598,81.873z"/>
<path fill="#323333" d="M16.598,68.144h40.013c0.776,0,1.405-0.627,1.405-1.405c0-0.774-0.629-1.4-1.405-1.4H16.598
	c-0.773,0-1.403,0.626-1.403,1.4C15.194,67.517,15.825,68.144,16.598,68.144z"/>
<path fill="#323333" d="M27.413,30.831c0,0.879,0.67,1.597,1.501,1.597c0.01,0,0.02-0.005,0.027-0.005
	c0.31,4.206,3.621,8.408,7.662,8.408c4.044,0,7.355-4.202,7.667-8.408c0.007,0,0.018,0.005,0.025,0.005
	c0.829,0,1.504-0.718,1.504-1.597c0-0.65-0.366-1.206-0.891-1.455c0.302-0.946,0.472-1.955,0.472-3.006
	c0-5.14-3.929-9.306-8.777-9.306c-4.844,0-8.773,4.166-8.773,9.306c0,1.052,0.168,2.06,0.471,3.006
	C27.778,29.625,27.413,30.18,27.413,30.831z"/>
<path fill="#323333" d="M17.965,55.745h37.282c0.449,0,0.818-0.371,0.818-0.82V52c0-0.222-0.091-0.435-0.25-0.588
	c-3.583-3.476-7.957-5.934-12.663-7.102c-0.119-0.067-0.252-0.103-0.39-0.103h-0.425c-0.135,0-0.268,0.035-0.388,0.098
	c-1.418,0.761-3.366,1.198-5.345,1.198c-1.974,0-3.921-0.438-5.345-1.198c-0.118-0.063-0.251-0.098-0.386-0.098h-0.31
	c-0.065,0-0.128,0.008-0.187,0.02c-4.829,1.142-9.318,3.629-12.984,7.185c-0.155,0.153-0.246,0.366-0.246,0.588v2.924
	C17.148,55.374,17.512,55.745,17.965,55.745z"/>
<path fill="#323333" d="M82.663,35.08h-6.207v28.387h6.207c1.938,0,3.515-1.569,3.515-3.513V38.595
	C86.177,36.656,84.601,35.08,82.663,35.08z"/>
<path fill="#323333" d="M82.663,68.671h-6.207v29.877h6.207c1.938,0,3.515-1.571,3.515-3.511V72.184
	C86.177,70.245,84.601,68.671,82.663,68.671z"/>
</svg>
