<?xml version="1.0" encoding="utf-8"?>
<!-- Generator: Adobe Illustrator 15.0.2, SVG Export Plug-In . SVG Version: 6.00 Build 0)  -->
<!DOCTYPE svg PUBLIC "-//W3C//DTD SVG 1.1//EN" "http://www.w3.org/Graphics/SVG/1.1/DTD/svg11.dtd">
<svg version="1.1" id="图层_1" xmlns="http://www.w3.org/2000/svg" xmlns:xlink="http://www.w3.org/1999/xlink" x="0px" y="0px"
	 width="100px" height="100px" viewBox="0 0 100 100" enable-background="new 0 0 100 100" xml:space="preserve">
<path fill="#323333" d="M78.583,90.773H33.72c-0.245,0.135-0.481,0.283-0.743,0.389l-16.242,6.561h61.848
	c1.92,0,3.474-1.557,3.474-3.477C82.057,92.327,80.502,90.773,78.583,90.773z"/>
<path fill="#323333" d="M96.211,18.888L82.137,4.816c-1.084-1.088-2.845-1.088-3.931,0L14.34,68.686
	c-0.266,0.262-0.472,0.576-0.613,0.922l-9.525,23.6c-0.418,1.033-0.176,2.216,0.612,3.004c0.53,0.534,1.241,0.814,1.964,0.814
	c0.348,0,0.702-0.066,1.041-0.203l14.991-6.049l0,0l8.606-3.474c0.345-0.144,0.664-0.348,0.923-0.612l63.872-63.874
	c0.521-0.519,0.813-1.227,0.813-1.965C97.025,20.114,96.732,19.408,96.211,18.888z M28.814,82.357l-9.218,3.72l-4.649-4.646
	l3.723-9.217l61.503-61.507l4.669,4.668L26.326,73.895c-0.542,0.541-0.542,1.418,0,1.963c0.273,0.271,0.627,0.406,0.982,0.406
	c0.356,0,0.712-0.135,0.981-0.406l58.518-58.517l3.51,3.509L28.814,82.357z"/>
</svg>
