<?xml version="1.0" encoding="utf-8"?>
<!-- Generator: Adobe Illustrator 15.0.2, SVG Export Plug-In . SVG Version: 6.00 Build 0)  -->
<!DOCTYPE svg PUBLIC "-//W3C//DTD SVG 1.1//EN" "http://www.w3.org/Graphics/SVG/1.1/DTD/svg11.dtd">
<svg version="1.1" id="图层_1" xmlns="http://www.w3.org/2000/svg" xmlns:xlink="http://www.w3.org/1999/xlink" x="0px" y="0px"
	 width="100px" height="100px" viewBox="0 0 100 100" enable-background="new 0 0 100 100" xml:space="preserve">
<rect x="34.534" y="55.727" fill="#323333" width="8.473" height="8.444"/>
<path fill="#323333" d="M89.309,44.142L53.747,14.033c-1.629-1.378-4.013-1.378-5.642,0L12.544,44.142
	c-1.839,1.555-2.068,4.31-0.511,6.149c1.556,1.839,4.31,2.068,6.15,0.51l0.569-0.48v34.677c0,1.505,1.22,2.726,2.727,2.726h58.892
	c1.508,0,2.729-1.221,2.729-2.726V50.318l0.57,0.481c0.818,0.693,1.822,1.035,2.814,1.035c1.24,0,2.47-0.524,3.334-1.545
	C91.376,48.452,91.146,45.697,89.309,44.142z M77.645,82.268H67.318V55.727H52.307v26.541h-28.1V45.703l26.72-22.621l26.72,22.619
	v36.566H77.645z"/>
</svg>
