<?xml version="1.0" encoding="utf-8"?>
<!-- Generator: Adobe Illustrator 15.0.2, SVG Export Plug-In  -->
<!DOCTYPE svg PUBLIC "-//W3C//DTD SVG 1.1//EN" "http://www.w3.org/Graphics/SVG/1.1/DTD/svg11.dtd" [
	<!ENTITY ns_flows "http://ns.adobe.com/Flows/1.0/">
]>
<svg version="1.1"
	 xmlns="http://www.w3.org/2000/svg" xmlns:xlink="http://www.w3.org/1999/xlink" xmlns:a="http://ns.adobe.com/AdobeSVGViewerExtensions/3.0/"
	 x="0px" y="0px" width="100px" height="100px" viewBox="-0.425 -0.693 100 100" enable-background="new -0.425 -0.693 100 100"
	 xml:space="preserve">
<defs>
</defs>
<path fill="#323333" d="M85.551,75.713V11.201c0-4.494-2.781-11.179-10.447-11.179H15.47c-1.073-0.08-5.022-0.114-8.76,3.192
	C2.258,7.152,0,14.129,0,23.953v3.034h12.134v60.389c0,3.605,0.972,6.36,2.891,8.189c1.517,1.446,3.167,1.867,4.13,1.985v0.049
	h63.592c11.998,0,15.168-12.347,15.168-18.875v-3.042L85.551,75.713z M6.151,20.919c0.431-7.36,2.413-10.998,4.198-12.797
	c0.859,0.676,1.786,2.433,1.786,6.174v6.624H6.151z M24.436,78.893c0,9.552-2.823,12.409-4.608,12.626
	c-0.769-0.143-1.628-1.297-1.628-4.144v-73.08c0-3.657-0.75-6.318-1.841-8.229l58.746,0.023c3.996,0,4.363,3.928,4.382,5.112V75.73
	l-55.05,0.138V78.893z M82.747,91.532H28.179c1.113-2.263,1.96-5.364,2.231-9.613l61.165-0.152
	C90.968,85.559,89.019,91.532,82.747,91.532z"/>
<rect x="29.493" y="18.728" fill="#323333" width="40.108" height="6.067"/>
<rect x="29.493" y="32.21" fill="#323333" width="40.108" height="6.067"/>
<rect x="29.493" y="45.692" fill="#323333" width="40.108" height="6.067"/>
<rect x="29.493" y="59.174" fill="#323333" width="40.108" height="6.067"/>
</svg>
