<?xml version="1.0" encoding="utf-8"?>
<!-- Generator: Adobe Illustrator 15.0.2, SVG Export Plug-In . SVG Version: 6.00 Build 0)  -->
<!DOCTYPE svg PUBLIC "-//W3C//DTD SVG 1.1//EN" "http://www.w3.org/Graphics/SVG/1.1/DTD/svg11.dtd">
<svg version="1.1" id="图层_1" xmlns="http://www.w3.org/2000/svg" xmlns:xlink="http://www.w3.org/1999/xlink" x="0px" y="0px"
	 width="100px" height="100px" viewBox="0 0 100 100" enable-background="new 0 0 100 100" xml:space="preserve">
<path fill="#323333" d="M100,100c0,0-0.197-18.936-1.354-20.896c-1.722-2.922-5.729-4.932-13.17-8.041
	c-7.416-3.101-9.787-5.715-9.787-11.314c0-3.363,2.264-2.266,3.26-8.42c0.412-2.555,2.412-0.043,2.795-5.871
	c0-2.324-1.092-2.903-1.092-2.903s0.555-3.437,0.771-6.084c0.271-3.298-1.661-11.815-11.955-11.815
	c-10.295,0-12.225,8.518-11.954,11.815c0.217,2.647,0.77,6.084,0.77,6.084s-1.09,0.579-1.09,2.903
	c0.383,5.828,2.381,3.316,2.795,5.871c0.994,6.154,3.26,5.057,3.26,8.42c0,3.807-1.102,6.234-4.137,8.374
	c16.203,8.11,18.375,9.765,18.375,17.015V100H100z M51.117,73.877c-9.891-4.134-13.051-7.621-13.051-15.086
	c0-4.482,3.02-3.02,4.346-11.228c0.549-3.404,3.217-0.056,3.727-7.829c0-3.099-1.455-3.868-1.455-3.868s0.74-4.584,1.029-8.112
	C46.072,23.357,43.498,12,29.771,12c-13.724,0-16.3,11.357-15.939,15.754c0.289,3.528,1.027,8.112,1.027,8.112
	s-1.455,0.77-1.455,3.868c0.512,7.773,3.178,4.425,3.729,7.829c1.326,8.208,4.346,6.744,4.346,11.228
	c0,7.465-3.162,10.952-13.051,15.086C5.414,75.137,0,77.088,0,81.783V100h69.469c0,0,0-10.775,0-13.659
	C69.469,82.059,61.037,78.023,51.117,73.877z"/>
</svg>
