<?xml version="1.0" encoding="utf-8"?>
<!-- Generator: Adobe Illustrator 15.0.2, SVG Export Plug-In . SVG Version: 6.00 Build 0)  -->
<!DOCTYPE svg PUBLIC "-//W3C//DTD SVG 1.1//EN" "http://www.w3.org/Graphics/SVG/1.1/DTD/svg11.dtd">
<svg version="1.1" id="图层_1" xmlns="http://www.w3.org/2000/svg" xmlns:xlink="http://www.w3.org/1999/xlink" x="0px" y="0px"
	 width="100px" height="100px" viewBox="0 0 100 100" enable-background="new 0 0 100 100" xml:space="preserve">
<path fill="#323333" d="M27.202,47.279v6.165c0,1.921,1.562,3.483,3.482,3.483h38.445c1.921,0,3.482-1.563,3.48-3.483v-6.165
	c0-1.928-1.561-3.48-3.48-3.48H30.684C28.764,43.798,27.202,45.351,27.202,47.279z M31.376,47.968h37.058v4.782H31.376V47.968z"/>
<path fill="#323333" d="M37.49,61.766H6.956v-22.81h30.532l0,0h6.956v-2.213c0-2.617-2.128-4.743-4.747-4.743H4.747
	C2.13,32,0,34.126,0,36.743v27.233c0,2.614,2.13,4.744,4.745,4.744h34.954c2.613,0,4.743-2.13,4.747-4.748v-2.212H37.49V61.766z"/>
<path fill="#323333" d="M98.426,33.39C97.527,32.491,96.335,32,95.064,32H60.116c-2.616,0-4.747,2.126-4.747,4.743v2.213h6.956l0,0
	h30.532v22.806l-25.166,0.004h-5.366h-6.956v2.209c0,2.617,2.131,4.748,4.747,4.752l34.952-0.004c1.269,0,2.461-0.5,3.359-1.395
	c0.893-0.898,1.387-2.092,1.385-3.352V36.751C99.814,35.484,99.32,34.292,98.426,33.39z"/>
</svg>
