<?xml version="1.0" encoding="utf-8"?>
<!-- Generator: Adobe Illustrator 15.0.2, SVG Export Plug-In . SVG Version: 6.00 Build 0)  -->
<!DOCTYPE svg PUBLIC "-//W3C//DTD SVG 1.1//EN" "http://www.w3.org/Graphics/SVG/1.1/DTD/svg11.dtd">
<svg version="1.1" id="图层_1" xmlns="http://www.w3.org/2000/svg" xmlns:xlink="http://www.w3.org/1999/xlink" x="0px" y="0px"
	 width="100px" height="100px" viewBox="0 0 100 100" enable-background="new 0 0 100 100" xml:space="preserve">
<path fill="#323333" d="M23.074,74.292v-0.028c0.018-1.582,0.714-6.547,8.096-11.063c1.351-1.836,2.462-4.34,3.597-7.229
	c0.785-1.998,0.651-3.703,0.651-6.129c0-1.794,0.338-4.67-0.106-6.252c-1.502-5.342-5.293-6.817-9.737-6.817
	c-4.445,0-8.241,1.482-9.739,6.835c-0.441,1.575-0.103,4.446-0.103,6.234c0,2.432-0.132,4.143,0.655,6.145
	c1.364,3.469,2.663,6.375,4.395,8.23c-6.748,1.238-11.308,4.76-14.386,6.133C0.03,73.188,0,76.298,0,76.298v5.279l23.074-0.005
	v-7.254V74.292z"/>
<path fill="#323333" d="M90.205,66.129c-4.256-1.891-10.57-6.763-19.921-8.438c2.391-2.563,4.198-6.563,6.063-11.306
	c1.08-2.747,0.895-5.089,0.895-8.425c0-2.465,0.463-6.419-0.146-8.591C75.029,22.026,69.82,20,63.713,20
	c-6.111,0-11.329,2.036-13.386,9.392c-0.607,2.167-0.142,6.112-0.142,8.569c0,3.344-0.183,5.693,0.901,8.445
	c1.875,4.767,3.658,8.762,6.04,11.313c-9.275,1.704-15.543,6.543-19.771,8.428c-8.751,3.901-8.794,8.172-8.794,8.172v7.261
	l70.47-0.011v-7.25C99.029,74.318,98.988,70.034,90.205,66.129z"/>
<rect x="74.588" y="61.15" transform="matrix(0.6825 0.7309 -0.7309 0.6825 76.0971 -43.0101)" fill="#FFFFFF" width="25.93" height="9.863"/>
<rect x="82.619" y="53.789" transform="matrix(0.6825 0.7309 -0.7309 0.6825 77.1386 -43.1089)" fill="#FFFFFF" width="11.135" height="26.882"/>
<polygon fill="#323333" points="97.152,72.857 91.723,67.043 97.541,61.609 93.256,57.02 87.438,62.453 82.005,56.637 77.417,60.92 
	82.85,66.736 77.031,72.169 81.316,76.759 87.134,71.327 92.564,77.143 "/>
</svg>
