<?xml version="1.0" encoding="utf-8"?>
<!-- Generator: Adobe Illustrator 15.0.2, SVG Export Plug-In . SVG Version: 6.00 Build 0)  -->
<!DOCTYPE svg PUBLIC "-//W3C//DTD SVG 1.1//EN" "http://www.w3.org/Graphics/SVG/1.1/DTD/svg11.dtd">
<svg version="1.1" id="图层_1" xmlns="http://www.w3.org/2000/svg" xmlns:xlink="http://www.w3.org/1999/xlink" x="0px" y="0px"
	 width="100px" height="100px" viewBox="0 0 100 100" enable-background="new 0 0 100 100" xml:space="preserve">
<path fill="#323333" d="M29.025,46.185c1.841,10.708,10.511,21.324,21.859,21.324c11.342,0,20.012-10.615,21.855-21.324
	c2.398-1.155,4.066-3.671,4.066-6.579c0-1.784-0.643-3.47-1.736-4.767c0.469-2.025,0.703-4.095,0.703-6.191
	C75.774,14.203,64.608,2.45,50.885,2.45c-13.727,0-24.894,11.753-24.894,26.197c0,2.093,0.238,4.162,0.707,6.188
	c-1.098,1.301-1.739,2.987-1.739,4.771C24.958,42.513,26.627,45.03,29.025,46.185z M31.93,39.056
	c1.515-0.718,2.265-2.453,1.752-4.047c-0.661-2.057-0.997-4.195-0.997-6.361c0-10.754,8.164-19.503,18.2-19.503
	c10.035,0,18.197,8.749,18.197,19.503c0,2.168-0.336,4.308-0.994,6.357c-0.516,1.599,0.232,3.333,1.75,4.051
	c0.113,0.053,0.275,0.243,0.275,0.55c0,0.329-0.189,0.55-0.326,0.57c-0.029,0-0.059-0.004-0.084-0.004
	c-1.75,0-3.205,1.349-3.336,3.098c-0.617,8.299-7.125,17.549-15.482,17.549c-8.361,0-14.871-9.25-15.486-17.545
	c-0.126-1.752-1.583-3.102-3.335-3.102c-0.023,0-0.053,0.004-0.083,0.004c-0.136-0.02-0.328-0.241-0.328-0.57
	C31.653,39.299,31.816,39.109,31.93,39.056z"/>
<path fill="#323333" d="M98.838,87.751c-8.934-7.697-19.821-13.134-31.525-15.746c-0.408-0.173-0.854-0.268-1.311-0.268h-1.047
	c-0.498,0-0.989,0.109-1.44,0.322c-3.333,1.59-7.937,2.498-12.63,2.498c-4.696,0-9.301-0.908-12.638-2.498
	c-0.451-0.213-0.943-0.326-1.44-0.326h-0.76c-0.229,0-0.461,0.027-0.687,0.07c-12.047,2.537-23.261,8.049-32.433,15.947
	c-0.738,0.635-1.161,1.561-1.161,2.536v6.367C1.766,98.5,3.264,100,5.111,100h91.543c1.85,0,3.346-1.5,3.346-3.346v-6.367
	C100,89.312,99.578,88.39,98.838,87.751z M93.309,93.308H8.458v-1.465c7.954-6.523,17.498-11.133,27.729-13.367
	c4.142,1.791,9.318,2.776,14.699,2.776c5.378,0,10.555-0.985,14.694-2.776c10.23,2.238,19.781,6.846,27.729,13.367L93.309,93.308
	L93.309,93.308z"/>
</svg>
