<?xml version="1.0" encoding="utf-8"?>
<!-- Generator: Adobe Illustrator 15.0.2, SVG Export Plug-In  -->
<!DOCTYPE svg PUBLIC "-//W3C//DTD SVG 1.1//EN" "http://www.w3.org/Graphics/SVG/1.1/DTD/svg11.dtd" [
	<!ENTITY ns_flows "http://ns.adobe.com/Flows/1.0/">
]>
<svg version="1.1"
	 xmlns="http://www.w3.org/2000/svg" xmlns:xlink="http://www.w3.org/1999/xlink" xmlns:a="http://ns.adobe.com/AdobeSVGViewerExtensions/3.0/"
	 x="0px" y="0px" width="100px" height="100px" viewBox="0 0 100 100" enable-background="new 0 0 100 100" xml:space="preserve">
<defs>
</defs>
<path fill="#323333" d="M64.844,70.646c4.68-4.636,8.012-10.987,9.229-17.66c-2.285-0.122-4.505-0.51-6.607-1.17
	C66.2,58.629,62.07,65.17,56.667,68.646c-1.047,0.674-1.634,1.867-1.53,3.107c0.102,1.237,0.879,2.314,2.018,2.809
	c0.248,0.106,23.369,10.137,32.599,17.668H7.235c9.279-7.496,32.634-16.946,32.885-17.045c1.194-0.48,2.011-1.603,2.098-2.89
	c0.089-1.287-0.565-2.507-1.685-3.147c-6.572-3.762-11.391-11.777-11.997-19.954c-0.131-1.757-1.591-3.11-3.352-3.11
	c-0.039,0-0.082,0-0.127,0c-0.601-0.034-1.102-0.668-1.102-1.418c0-0.672,0.379-1.153,0.752-1.328
	c1.524-0.726,2.273-2.461,1.76-4.068c-0.83-2.585-1.251-5.272-1.251-7.992c0-13.54,10.299-24.554,22.96-24.554
	c2.639,0,5.168,0.502,7.533,1.384c1.686-1.85,3.624-3.461,5.766-4.782C57.471,1.203,52.951,0,48.176,0
	C31.805,0,18.49,14.031,18.49,31.28c0,2.621,0.312,5.22,0.928,7.759c-1.38,1.489-2.19,3.499-2.19,5.629
	c0,3.402,2.024,6.322,4.894,7.538c1.146,7.239,4.862,14.196,10.04,19.037c-8.528,3.702-24.649,11.2-31.141,17.507
	C0.368,89.385,0,90.252,0,91.163v4.431c0,1.857,1.504,3.363,3.363,3.363h90.249c1.857,0,3.365-1.506,3.365-3.363v-4.431
	c0-0.911-0.371-1.778-1.022-2.413C89.439,82.426,73.163,74.477,64.844,70.646z"/>
<rect x="52.371" y="23.103" fill="#323333" width="33.626" height="10.868"/>
</svg>
