<?xml version="1.0" encoding="utf-8"?>
<!-- Generator: Adobe Illustrator 15.0.2, SVG Export Plug-In  -->
<!DOCTYPE svg PUBLIC "-//W3C//DTD SVG 1.1//EN" "http://www.w3.org/Graphics/SVG/1.1/DTD/svg11.dtd" [
	<!ENTITY ns_flows "http://ns.adobe.com/Flows/1.0/">
]>
<svg version="1.1"
	 xmlns="http://www.w3.org/2000/svg" xmlns:xlink="http://www.w3.org/1999/xlink" xmlns:a="http://ns.adobe.com/AdobeSVGViewerExtensions/3.0/"
	 x="0px" y="0px" width="100px" height="100px" viewBox="-0.153 -0.646 100 100" enable-background="new -0.153 -0.646 100 100"
	 xml:space="preserve">
<defs>
</defs>
<path fill="#D51515" d="M49,0c-0.028,0-0.055,0-0.081,0c-0.008,0-0.015,0-0.022,0c-0.02,0-0.04,0-0.059,0c-0.009,0-0.019,0-0.027,0
	c-0.019,0-0.036,0-0.054,0c-0.012,0-0.02,0-0.032,0.003c-0.016,0-0.033,0-0.049,0c-0.009,0-0.024,0-0.033,0
	c-0.016,0-0.032,0-0.048,0c-0.012,0-0.024,0-0.035,0c-0.016,0-0.031,0-0.046,0c-0.012,0-0.024,0-0.035,0c-0.016,0-0.031,0-0.045,0
	c-0.013,0-0.025,0.002-0.039,0.002c-0.015,0-0.028,0-0.042,0c-0.012,0-0.025,0-0.036,0c-0.016,0-0.031,0-0.045,0
	c-0.013,0-0.024,0-0.037,0c-0.015,0.002-0.029,0.002-0.044,0.002c-0.012,0-0.024,0-0.036,0c-0.016,0-0.031,0-0.045,0
	c-0.013,0-0.024,0-0.037,0c-0.015,0.003-0.029,0.003-0.044,0.003c-0.013,0-0.022,0-0.036,0c-0.015,0-0.029,0-0.044,0
	c-0.012,0-0.027,0.002-0.039,0.002c-0.015,0-0.028,0-0.042,0c-0.013,0-0.026,0-0.04,0c-0.014,0-0.027,0.003-0.04,0.003
	s-0.028,0-0.041,0c-0.014,0-0.027,0-0.04,0.002c-0.012,0-0.028,0-0.039,0c-0.015,0-0.028,0-0.042,0c-0.013,0-0.026,0.003-0.04,0.003
	c-0.013,0-0.026,0-0.039,0c-0.013,0-0.028,0-0.041,0.002c-0.013,0-0.027,0-0.04,0c-0.015,0-0.026,0-0.041,0.002
	c-0.012,0-0.024,0-0.036,0c-0.015,0-0.03,0-0.045,0.003c-0.011,0-0.02,0-0.031,0c-0.017,0-0.035,0-0.05,0.002
	c-0.005,0-0.011,0-0.018,0c-0.097,0.003-0.191,0.005-0.288,0.011c-0.004,0-0.007,0-0.011,0c-0.021,0-0.039,0.003-0.06,0.003
	c-0.006,0-0.013,0-0.02,0c-0.02,0.002-0.039,0.002-0.058,0.002c-0.008,0-0.014,0.003-0.022,0.003c-0.016,0-0.035,0-0.05,0.002
	c-0.011,0-0.02,0-0.031,0c-0.016,0-0.032,0.002-0.048,0.002c-0.011,0-0.021,0-0.032,0c-0.018,0.003-0.032,0.003-0.049,0.003
	c-0.011,0.002-0.02,0.002-0.029,0.002c-0.017,0-0.036,0.003-0.052,0.003c-0.009,0-0.019,0-0.026,0
	c-0.018,0.002-0.036,0.002-0.052,0.002c-0.009,0.003-0.02,0.003-0.03,0.003c-0.016,0-0.032,0.002-0.048,0.002
	c-0.011,0-0.02,0-0.031,0.002c-0.016,0-0.033,0-0.049,0.003c-0.011,0-0.02,0-0.031,0C46.214,0.08,46.195,0.08,46.179,0.08
	c-0.009,0-0.017,0.003-0.028,0.003c-0.016,0-0.036,0.002-0.052,0.002c-0.009,0-0.019,0-0.028,0.003c-0.017,0-0.033,0-0.052,0.002
	c-0.008,0-0.018,0-0.025,0c-0.019,0.003-0.037,0.003-0.056,0.005c-0.007,0-0.015,0-0.021,0c-0.02,0.003-0.039,0.003-0.059,0.003
	c-0.005,0.002-0.012,0.002-0.019,0.002c-0.02,0-0.041,0.002-0.06,0.002c-0.007,0.003-0.013,0.003-0.019,0.003
	c-0.02,0-0.042,0.002-0.062,0.002c-0.005,0-0.01,0.003-0.016,0.003c-0.023,0-0.042,0.002-0.064,0.002
	c-0.002,0-0.007,0.003-0.009,0.003c-0.285,0.019-0.565,0.04-0.848,0.063l0,0c-0.025,0.003-0.05,0.005-0.076,0.008h-0.001
	c-0.053,0.002-0.101,0.008-0.153,0.013H44.53c-0.025,0.002-0.049,0.005-0.074,0.005c0,0-0.001,0-0.003,0.002
	c-0.025,0-0.048,0.003-0.074,0.005h-0.004c-0.052,0.005-0.1,0.011-0.152,0.016H44.22c-4.175,0.404-8.195,1.332-11.996,2.717h-0.001
	c-0.024,0.008-0.046,0.016-0.069,0.026h-0.001c-0.021,0.008-0.042,0.016-0.064,0.021c-0.002,0.002-0.008,0.002-0.011,0.005
	c-0.019,0.008-0.037,0.013-0.057,0.021c-0.005,0.003-0.01,0.003-0.015,0.005c-0.02,0.008-0.034,0.013-0.053,0.019
	c-0.007,0.003-0.015,0.005-0.021,0.008c-0.017,0.008-0.032,0.013-0.051,0.019c-0.006,0.002-0.013,0.005-0.02,0.008
	c-0.016,0.005-0.032,0.013-0.048,0.019c-0.009,0.003-0.019,0.005-0.028,0.011c-0.013,0.005-0.029,0.011-0.041,0.016
	c-0.011,0.002-0.02,0.005-0.029,0.01c-0.015,0.005-0.028,0.011-0.042,0.016c-0.011,0.003-0.02,0.008-0.029,0.011
	c-0.015,0.005-0.028,0.011-0.042,0.016c-0.011,0.002-0.02,0.008-0.03,0.01c-0.014,0.005-0.025,0.011-0.039,0.016
	c-0.014,0.005-0.027,0.011-0.042,0.016c-0.008,0.002-0.019,0.008-0.028,0.01c-0.015,0.005-0.031,0.011-0.045,0.019
	c-0.009,0.002-0.017,0.005-0.025,0.008c-0.016,0.005-0.032,0.013-0.048,0.019c-0.008,0.002-0.018,0.008-0.025,0.011
	c-0.016,0.005-0.033,0.013-0.049,0.019c-0.005,0.002-0.015,0.005-0.021,0.008c-0.702,0.274-1.396,0.561-2.082,0.867l2.205,4.977
	C36.932,6.694,42.863,5.444,49,5.444c0.496,0,0.989,0.008,1.48,0.024l0.181-5.439c-0.078-0.003-0.158-0.005-0.236-0.008
	c-0.005,0-0.012,0-0.018,0c-0.021-0.003-0.042-0.003-0.063-0.003c-0.03,0-0.061-0.002-0.092-0.002c-0.002,0-0.009,0-0.013,0
	c-0.031,0-0.063-0.003-0.093-0.003c-0.003,0-0.001,0-0.001,0c-0.31-0.008-0.62-0.01-0.929-0.013c-0.005,0-0.013,0-0.019,0
	c-0.025,0-0.052,0-0.077,0c-0.008,0-0.016,0-0.024,0C49.064,0,49.032,0,49,0L49,0L49,0z M20.332,9.257
	c-0.042,0.032-0.086,0.063-0.129,0.096l0,0c-0.021,0.013-0.041,0.029-0.061,0.045c-0.003,0-0.007,0.003-0.009,0.005
	c-0.019,0.013-0.037,0.027-0.057,0.042l-0.004,0.003c-0.02,0.013-0.039,0.029-0.058,0.042c-0.002,0-0.006,0.002-0.009,0.005
	c-0.019,0.013-0.037,0.026-0.056,0.042c-0.002,0-0.004,0.002-0.006,0.002c-0.019,0.016-0.039,0.029-0.059,0.045L19.88,9.589
	c-1.796,1.329-3.498,2.778-5.092,4.333h-0.001c-0.15,0.149-0.3,0.295-0.449,0.446c-0.003,0-0.005,0.005-0.005,0.005
	c-0.019,0.019-0.036,0.035-0.052,0.051c-0.003,0.002-0.003,0.002-0.005,0.005c-0.016,0.016-0.032,0.032-0.048,0.048
	c-0.004,0.005-0.007,0.005-0.009,0.011c-0.016,0.016-0.032,0.032-0.048,0.048c-0.003,0.003-0.004,0.005-0.007,0.005
	c-0.016,0.019-0.033,0.035-0.049,0.051c-0.001,0.002-0.004,0.005-0.007,0.005c-0.11,0.114-0.221,0.226-0.33,0.34
	c-0.003,0.003-0.005,0.003-0.007,0.005c-0.016,0.016-0.032,0.032-0.048,0.051c-0.004,0.002-0.005,0.005-0.009,0.008
	c-0.015,0.016-0.029,0.032-0.044,0.048c-0.004,0.002-0.008,0.008-0.012,0.011c-0.015,0.016-0.029,0.032-0.042,0.045
	c-0.004,0.003-0.008,0.008-0.011,0.011c-0.015,0.016-0.028,0.029-0.042,0.045c-0.005,0.005-0.009,0.011-0.015,0.016
	c-0.013,0.014-0.027,0.027-0.039,0.04c-0.004,0.005-0.011,0.011-0.015,0.013c-0.013,0.016-0.026,0.029-0.041,0.045
	c-0.004,0.002-0.008,0.008-0.012,0.013c-0.015,0.013-0.029,0.029-0.045,0.045c-0.003,0.005-0.004,0.005-0.008,0.01
	c-0.015,0.016-0.029,0.032-0.045,0.048c-0.003,0.003-0.005,0.005-0.009,0.008c-0.053,0.059-0.106,0.114-0.161,0.173
	c-0.002,0.002-0.002,0.002-0.006,0.005c-0.015,0.016-0.029,0.032-0.044,0.048c-0.007,0.008-0.012,0.014-0.019,0.021
	c-0.012,0.013-0.023,0.024-0.035,0.037c-0.005,0.005-0.012,0.014-0.019,0.019c-0.011,0.014-0.021,0.024-0.033,0.038
	c-0.007,0.008-0.013,0.013-0.02,0.021c-0.011,0.013-0.021,0.024-0.032,0.035c-0.008,0.008-0.015,0.016-0.021,0.024
	c-0.011,0.011-0.02,0.021-0.031,0.032c-0.008,0.008-0.013,0.016-0.022,0.024c-0.009,0.011-0.02,0.024-0.03,0.035
	c-0.007,0.008-0.014,0.016-0.021,0.024c-0.009,0.011-0.02,0.021-0.029,0.032c-0.008,0.008-0.015,0.016-0.022,0.024
	c-0.009,0.011-0.02,0.021-0.029,0.032c-0.008,0.008-0.016,0.019-0.022,0.026c-0.009,0.011-0.019,0.019-0.027,0.029
	c-0.009,0.008-0.017,0.019-0.025,0.026c-0.01,0.011-0.02,0.021-0.029,0.032c-0.008,0.011-0.015,0.016-0.023,0.026
	c-0.017,0.019-0.033,0.037-0.05,0.053c-0.007,0.008-0.015,0.019-0.022,0.027c-0.01,0.01-0.019,0.021-0.028,0.032
	s-0.019,0.021-0.028,0.029c-0.008,0.011-0.015,0.019-0.022,0.026c-0.011,0.011-0.021,0.024-0.031,0.035
	c-0.006,0.008-0.013,0.013-0.02,0.021c-0.011,0.013-0.02,0.024-0.031,0.034c-0.007,0.008-0.013,0.016-0.019,0.021
	c-0.012,0.013-0.023,0.026-0.033,0.037c-0.007,0.008-0.012,0.013-0.018,0.019c-0.01,0.014-0.021,0.024-0.033,0.037
	c-0.005,0.008-0.01,0.014-0.017,0.021c-0.011,0.011-0.022,0.024-0.033,0.037c-0.005,0.005-0.011,0.011-0.015,0.016
	c-0.012,0.013-0.025,0.029-0.036,0.042c-0.004,0.003-0.009,0.008-0.013,0.013c-0.012,0.013-0.026,0.029-0.039,0.045
	c-0.001,0.002-0.005,0.005-0.006,0.008c-0.015,0.016-0.028,0.032-0.042,0.048c-0.001,0.003-0.003,0.003-0.005,0.005
	c-0.096,0.109-0.189,0.218-0.283,0.327l-0.001,0.002c-0.031,0.035-0.061,0.072-0.093,0.106c-0.001,0.002-0.003,0.005-0.004,0.008
	c-0.015,0.016-0.03,0.035-0.043,0.051c-0.001,0-0.003,0.002-0.004,0.002c-0.016,0.019-0.029,0.035-0.045,0.053
	c0,0.003-0.001,0.003-0.001,0.003c-1.832,2.158-3.477,4.477-4.917,6.933l4.697,2.754c3.045-5.194,7.237-9.81,12.126-13.343
	L20.332,9.257L20.332,9.257z M2.49,33.539c-0.249,0.747-0.479,1.5-0.691,2.262c-0.001,0.003-0.001,0.005-0.002,0.011
	c-0.005,0.021-0.011,0.04-0.018,0.061c-0.001,0.003-0.001,0.005-0.002,0.008c-0.005,0.021-0.012,0.045-0.017,0.066L1.757,35.95
	c-0.007,0.027-0.013,0.048-0.02,0.072c0,0.003-0.001,0.005-0.003,0.008c-0.004,0.019-0.01,0.04-0.014,0.058
	c-0.003,0.005-0.004,0.014-0.007,0.021c-0.004,0.016-0.008,0.032-0.012,0.045c-0.002,0.008-0.004,0.016-0.006,0.024
	c-0.004,0.016-0.008,0.029-0.012,0.045c-0.002,0.008-0.004,0.016-0.006,0.024c-0.005,0.019-0.011,0.04-0.016,0.061
	c-0.002,0.011-0.007,0.021-0.009,0.032c-0.002,0.01-0.005,0.024-0.009,0.034c-0.003,0.011-0.005,0.024-0.009,0.035
	c-0.001,0.011-0.005,0.021-0.007,0.029c-0.004,0.013-0.006,0.024-0.01,0.037c-0.003,0.008-0.004,0.016-0.007,0.024
	c-0.012,0.051-0.025,0.099-0.037,0.146c-0.001,0.005-0.003,0.011-0.004,0.016c-0.005,0.016-0.008,0.032-0.012,0.045
	c-0.002,0.008-0.004,0.013-0.005,0.019c-0.004,0.016-0.008,0.032-0.012,0.048c-0.001,0.002-0.001,0.002-0.001,0.005
	c-0.718,2.794-1.194,5.681-1.408,8.643c0,0.002,0,0.002,0,0.002c-0.007,0.083-0.012,0.165-0.017,0.245c0,0.003,0,0.003,0,0.005
	c-0.001,0.019-0.003,0.037-0.004,0.056c0,0.003,0,0.005-0.001,0.011c-0.001,0.019-0.001,0.037-0.003,0.056l-0.001,0.005
	c-0.004,0.059-0.007,0.117-0.011,0.176c0,0.002,0,0.005,0,0.008c-0.001,0.019-0.003,0.037-0.004,0.053c0,0.005,0,0.013-0.001,0.016
	c0,0.019-0.001,0.034-0.002,0.053c0,0.003,0,0.008,0,0.011c-0.004,0.056-0.007,0.109-0.01,0.165
	c-0.001,0.005-0.001,0.013-0.001,0.019c-0.001,0.016-0.001,0.032-0.003,0.048c0,0.008,0,0.013-0.001,0.021
	c0,0.016-0.001,0.029-0.003,0.045c0,0.011,0,0.016-0.001,0.026c-0.001,0.029-0.002,0.056-0.004,0.083c0,0.008,0,0.013-0.001,0.024
	c0,0.014-0.001,0.027-0.001,0.04c-0.001,0.011-0.001,0.019-0.001,0.029c-0.001,0.013-0.001,0.026-0.002,0.04
	c0,0.01,0,0.021-0.001,0.029c0,0.014-0.001,0.027-0.001,0.042c0,0.008-0.001,0.019-0.001,0.029
	c-0.001,0.029-0.002,0.059-0.004,0.085c0,0.005,0,0.01,0,0.016c-0.001,0.013-0.001,0.029-0.002,0.042c0,0.011,0,0.019-0.001,0.029
	c0,0.014-0.001,0.027-0.001,0.04c0,0.008-0.001,0.021-0.001,0.029c0,0.013-0.001,0.026-0.001,0.04c0,0.01-0.001,0.023-0.001,0.034
	c-0.001,0.019-0.001,0.037-0.002,0.056c0,0.016-0.001,0.032-0.001,0.045S0.032,47.2,0.032,47.213c0,0.008-0.001,0.021-0.001,0.032
	c0,0.013,0,0.026-0.001,0.037c0,0.013,0,0.024-0.001,0.037c0,0.011,0,0.024-0.001,0.035c0,0.016,0,0.026-0.001,0.04
	c0,0.016,0,0.032-0.001,0.048c0,0.016,0,0.032-0.001,0.048c0,0.01,0,0.024-0.001,0.034c0,0.014,0,0.027,0,0.038
	C0.02,47.575,0.02,47.586,0.02,47.596c0,0.014-0.001,0.024-0.001,0.04c0,0.011,0,0.021-0.001,0.032c0,0.016,0,0.035-0.001,0.053
	c0,0.005,0,0.011,0,0.016c-0.001,0.026-0.001,0.045-0.001,0.069c0,0.01-0.001,0.019-0.001,0.029c0,0.014,0,0.029-0.001,0.045
	c0,0.008,0,0.019,0,0.029c0,0.013,0,0.026-0.001,0.042c0,0.011,0,0.021,0,0.029c-0.001,0.021-0.001,0.04-0.001,0.059
	c0,0.005,0,0.008,0,0.013c-0.001,0.024-0.001,0.045-0.001,0.069c0,0.008,0,0.016-0.001,0.027c0,0.013,0,0.032,0,0.048
	c0,0.008,0,0.016,0,0.026c-0.001,0.016-0.001,0.032-0.001,0.048c0,0.008,0,0.016,0,0.024c-0.001,0.024-0.001,0.045-0.001,0.069
	v0.002c0,0.027,0,0.048-0.001,0.072c0,0.008,0,0.016,0,0.027c0,0.013,0,0.032,0,0.045c0,0.011,0,0.019,0,0.029
	c-0.001,0.013-0.001,0.032-0.001,0.048c0,0.008,0,0.016,0,0.024c0,0.048,0,0.099-0.001,0.144c0,0.008,0,0.016,0,0.024
	c0,0.016,0,0.035,0,0.051c0,0.008,0,0.016,0,0.026c0,0.016,0,0.032,0,0.051c0,0.005,0,0.013,0,0.021C0,48.952,0,48.976,0,49l0,0
	c0,0.026,0,0.051,0,0.077c0,0.008,0,0.016,0,0.024c0,0.019,0,0.035,0,0.053c0,0.011,0,0.021,0,0.032c0,0.013,0,0.029,0,0.045
	c0,0.011,0.001,0.021,0.001,0.034c0,0.014,0,0.027,0,0.043c0,0.01,0,0.021,0,0.034c0,0.014,0,0.027,0,0.04s0,0.024,0,0.037
	c0,0.014,0,0.027,0.001,0.042c0,0.011,0,0.021,0,0.032c0,0.013,0,0.032,0,0.045c0,0.011,0,0.021,0,0.032
	c0.001,0.016,0.001,0.029,0.001,0.048c0,0.008,0,0.016,0,0.026c0,0.019,0,0.035,0.001,0.05c0,0.011,0,0.019,0,0.027
	c0,0.019,0,0.037,0.001,0.056c0,0.005,0,0.013,0,0.019c0,0.021,0,0.042,0,0.061c0.001,0.006,0.001,0.011,0.001,0.017
	c0,0.023,0,0.05,0.001,0.074l0,0c0.002,0.186,0.008,0.369,0.013,0.553l0,0c0.015,0.474,0.035,0.941,0.063,1.409c0,0,0,0.003,0,0.005
	c0.001,0.024,0.003,0.048,0.004,0.072c0,0.003,0,0.003,0.001,0.005c0.001,0.024,0.003,0.048,0.004,0.072c0,0.002,0,0.002,0,0.005
	c0.001,0.026,0.003,0.051,0.005,0.074v0.003c0.001,0.024,0.003,0.048,0.004,0.069c0,0.003,0,0.008,0.001,0.011
	c0.001,0.021,0.002,0.042,0.004,0.066c0,0.003,0,0.008,0,0.011c0.001,0.011,0.001,0.016,0.003,0.026
	c0.002,0.04,0.005,0.08,0.008,0.119l0,0c0.028,0.412,0.063,0.824,0.101,1.231l5.42-0.514C5.511,51.794,5.444,50.391,5.444,49
	c0-4.703,0.745-9.328,2.212-13.744L2.49,33.539L2.49,33.539z M7.429,62.045l-5.194,1.627c2.067,6.599,5.491,12.59,9.946,17.66
	l4.089-3.595C12.226,73.136,9.251,67.856,7.429,62.045L7.429,62.045z M22.925,83.892l-3.262,4.36
	c0.21,0.156,0.421,0.311,0.634,0.465v0.003c0.021,0.013,0.042,0.029,0.062,0.042c0.002,0.003,0.004,0.003,0.006,0.006
	c0.019,0.013,0.037,0.026,0.056,0.04c0.002,0.002,0.006,0.005,0.009,0.005c0.017,0.014,0.036,0.026,0.053,0.04
	c0.004,0.003,0.007,0.005,0.011,0.008c0.018,0.011,0.035,0.024,0.052,0.037c0.004,0.003,0.008,0.006,0.012,0.008
	c0.017,0.014,0.035,0.024,0.052,0.037c0.004,0.003,0.008,0.006,0.012,0.009c0.016,0.01,0.032,0.023,0.048,0.034
	c0.006,0.005,0.01,0.008,0.016,0.011c0.016,0.011,0.032,0.021,0.046,0.034c0.005,0.003,0.012,0.008,0.018,0.011
	c0.016,0.011,0.032,0.024,0.048,0.035c0.005,0.002,0.011,0.005,0.015,0.01c0.042,0.029,0.083,0.059,0.125,0.088
	c0.012,0.008,0.022,0.017,0.033,0.024c0.009,0.005,0.02,0.013,0.029,0.019c0.01,0.008,0.025,0.019,0.037,0.026
	c0.008,0.005,0.016,0.011,0.024,0.016c0.013,0.011,0.025,0.019,0.039,0.027c0.008,0.005,0.016,0.01,0.024,0.019
	c0.013,0.008,0.028,0.019,0.04,0.026c0.008,0.005,0.015,0.011,0.021,0.013c0.015,0.011,0.029,0.021,0.042,0.029
	c0.007,0.006,0.013,0.011,0.02,0.014c0.013,0.011,0.029,0.021,0.042,0.032c0.007,0.002,0.012,0.008,0.019,0.011
	c0.016,0.01,0.028,0.021,0.044,0.031c0.007,0.003,0.012,0.008,0.019,0.011c0.015,0.011,0.029,0.021,0.044,0.032
	c0.005,0.003,0.011,0.008,0.016,0.011c0.017,0.011,0.032,0.021,0.049,0.031c0.003,0.003,0.007,0.006,0.009,0.009
	c0.019,0.01,0.036,0.023,0.055,0.037h0.001c3.032,2.055,6.302,3.777,9.766,5.117c0.001,0.003,0.002,0.003,0.002,0.003
	c0.023,0.008,0.045,0.016,0.067,0.026c0.002,0,0.004,0,0.004,0c0.022,0.008,0.045,0.016,0.066,0.026c0.002,0,0.004,0,0.005,0
	c0.022,0.011,0.042,0.019,0.065,0.026c0,0,0.004,0,0.005,0.003c0.022,0.008,0.044,0.016,0.065,0.024h0.004
	c0.023,0.01,0.045,0.019,0.067,0.026h0.001c0.162,0.061,0.323,0.122,0.484,0.181c0.003,0,0.005,0.003,0.009,0.003
	c0.02,0.008,0.038,0.013,0.059,0.021c0.004,0.003,0.008,0.003,0.013,0.006c0.019,0.005,0.037,0.013,0.056,0.021
	c0.005,0,0.012,0.002,0.017,0.005c0.017,0.005,0.036,0.014,0.055,0.019c0.005,0.003,0.01,0.006,0.017,0.008
	c0.017,0.006,0.036,0.014,0.053,0.019c0.007,0.003,0.013,0.006,0.019,0.008c0.019,0.006,0.037,0.011,0.055,0.02
	c0.005,0.002,0.01,0.002,0.017,0.005c0.019,0.008,0.035,0.014,0.055,0.019c0.005,0.003,0.012,0.005,0.017,0.008
	c0.019,0.006,0.037,0.014,0.055,0.019c0.005,0.003,0.01,0.003,0.016,0.006c0.018,0.008,0.039,0.013,0.056,0.021
	c0.005,0,0.01,0.003,0.015,0.006c0.02,0.005,0.04,0.014,0.06,0.019c0,0.003,0.002,0.003,0.002,0.003
	c0.113,0.04,0.226,0.077,0.338,0.116c0.005,0.003,0.012,0.003,0.017,0.006c0.016,0.005,0.033,0.011,0.049,0.016
	c0.008,0.003,0.016,0.006,0.024,0.008c0.016,0.006,0.031,0.011,0.046,0.017c0.009,0.002,0.018,0.008,0.028,0.011
	c0.014,0.005,0.029,0.011,0.045,0.016c0.009,0.003,0.019,0.005,0.028,0.008c0.015,0.006,0.028,0.011,0.042,0.016
	c0.011,0.003,0.021,0.006,0.033,0.011c0.014,0.003,0.027,0.009,0.04,0.014c0.011,0.003,0.021,0.005,0.033,0.011
	c0.013,0.003,0.027,0.008,0.04,0.013c0.012,0.003,0.024,0.009,0.036,0.011c0.012,0.006,0.025,0.009,0.038,0.014
	c0.012,0.003,0.023,0.008,0.036,0.011c0.013,0.005,0.025,0.008,0.039,0.013c0.012,0.006,0.024,0.009,0.037,0.014
	c0.012,0.003,0.024,0.008,0.036,0.011c0.013,0.005,0.025,0.008,0.039,0.014c0.012,0.002,0.022,0.008,0.034,0.01
	c0.015,0.006,0.028,0.011,0.042,0.014c0.011,0.006,0.021,0.008,0.032,0.011c0.015,0.005,0.03,0.011,0.045,0.016
	c0.011,0.003,0.019,0.006,0.029,0.008c0.025,0.009,0.049,0.017,0.075,0.024l0.004,0.003c0.024,0.008,0.046,0.013,0.07,0.021
	c0.005,0.003,0.012,0.006,0.019,0.006c0.019,0.008,0.038,0.014,0.056,0.019c0.008,0.003,0.017,0.005,0.024,0.008
	c0.017,0.006,0.033,0.011,0.05,0.016c0.008,0.003,0.02,0.006,0.029,0.009c0.015,0.005,0.031,0.011,0.045,0.016
	c0.01,0.003,0.019,0.005,0.028,0.008c0.016,0.006,0.032,0.011,0.048,0.014c0.009,0.005,0.02,0.008,0.028,0.011
	c0.016,0.005,0.03,0.008,0.046,0.013c0.011,0.003,0.019,0.006,0.029,0.011c0.015,0.003,0.031,0.008,0.045,0.014
	c0.01,0.002,0.02,0.005,0.03,0.008c0.015,0.005,0.031,0.011,0.045,0.016c0.009,0.003,0.02,0.006,0.029,0.008
	c0.016,0.006,0.032,0.009,0.048,0.014c0.009,0.003,0.017,0.005,0.026,0.008c0.017,0.006,0.033,0.011,0.051,0.017
	c0.008,0.002,0.017,0.005,0.023,0.008c0.018,0.005,0.035,0.011,0.052,0.016c0.008,0.003,0.017,0.005,0.024,0.005
	c0.02,0.009,0.041,0.014,0.06,0.02c0.005,0.002,0.009,0.002,0.015,0.005c0.022,0.005,0.046,0.014,0.07,0.021h0.004
	c0.053,0.016,0.104,0.031,0.155,0.045c0,0,0.001,0,0.002,0.003c0.024,0.005,0.049,0.013,0.073,0.021c0.004,0,0.007,0,0.009,0.002
	c0.023,0.006,0.044,0.011,0.066,0.019c0.005,0,0.011,0.003,0.016,0.006c0.02,0.005,0.04,0.011,0.06,0.016
	c0.006,0.003,0.012,0.003,0.02,0.006c0.019,0.005,0.038,0.01,0.056,0.016c0.008,0.003,0.013,0.005,0.021,0.005
	c0.019,0.006,0.038,0.011,0.056,0.017c0.005,0.002,0.013,0.005,0.02,0.005c0.019,0.008,0.038,0.014,0.056,0.019
	c0.006,0,0.015,0.003,0.02,0.006c0.019,0.005,0.039,0.01,0.057,0.016c0.006,0,0.013,0.003,0.02,0.005
	c0.019,0.006,0.038,0.011,0.057,0.017c0.006,0,0.013,0.002,0.019,0.005c0.02,0.006,0.041,0.011,0.06,0.016
	c0.005,0,0.012,0.003,0.016,0.006c0.021,0.005,0.044,0.011,0.065,0.016c0.003,0.003,0.008,0.003,0.011,0.003
	c0.024,0.008,0.049,0.014,0.073,0.021h0.001c0.13,0.034,0.261,0.071,0.391,0.104c0.002,0.003,0.006,0.003,0.009,0.003
	c0.022,0.008,0.044,0.013,0.066,0.019c0.005,0.002,0.009,0.002,0.015,0.002c0.021,0.006,0.041,0.014,0.063,0.019
	c0.005,0,0.011,0.003,0.016,0.003c0.02,0.006,0.041,0.011,0.061,0.017c0.005,0.002,0.01,0.002,0.016,0.005
	c0.021,0.005,0.042,0.011,0.062,0.016c0.005,0,0.013,0.003,0.017,0.003c0.02,0.005,0.04,0.011,0.06,0.016
	c0.005,0,0.014,0.003,0.018,0.006c0.02,0.005,0.041,0.008,0.061,0.013c0.004,0.003,0.012,0.006,0.017,0.006
	c0.02,0.005,0.042,0.011,0.062,0.016c0.004,0,0.011,0.003,0.015,0.003c0.022,0.005,0.044,0.011,0.066,0.016
	c0.004,0.003,0.006,0.003,0.011,0.006c0.025,0.005,0.05,0.011,0.076,0.019l0,0c0.131,0.031,0.263,0.063,0.395,0.096h0.001
	c0.025,0.005,0.05,0.011,0.077,0.019h0.004c0.024,0.005,0.048,0.011,0.072,0.016c0.004,0.003,0.008,0.003,0.013,0.006
	c0.021,0.005,0.044,0.008,0.065,0.013c0.005,0.003,0.008,0.003,0.012,0.003c0.022,0.005,0.044,0.011,0.065,0.016
	c0.005,0.003,0.01,0.003,0.016,0.003c0.02,0.005,0.042,0.011,0.063,0.016c0.005,0,0.011,0.003,0.015,0.003
	c0.021,0.005,0.042,0.011,0.063,0.016c0.004,0,0.007,0,0.011,0l1.211-5.306C33.323,90.109,27.826,87.561,22.925,83.892
	L22.925,83.892z M65.95,89.137c-5.366,2.268-11.068,3.419-16.95,3.419c-0.247,0-0.495,0-0.74-0.006l-0.092,5.445
	C48.363,97.997,48.559,98,48.754,98c0.004,0,0.008,0,0.012,0c0.017,0,0.039,0,0.056,0c0.016,0,0.032,0,0.046,0
	c0.014,0,0.027,0,0.04,0c0.031,0,0.061,0,0.092,0c0.202,0,0.405,0,0.607-0.003c5.646-0.068,11.065-1.093,16.098-2.919
	c0.799-0.289,1.588-0.598,2.366-0.928L65.95,89.137L65.95,89.137z M86.228,71.623c-3.133,5.145-7.404,9.688-12.35,13.136
	l3.112,4.466c0.928-0.648,1.836-1.329,2.716-2.036c0.003-0.003,0.007-0.006,0.01-0.008c0.017-0.014,0.031-0.027,0.049-0.04
	c0.003-0.003,0.005-0.003,0.008-0.006c0.018-0.013,0.033-0.026,0.049-0.04c0.005-0.002,0.007-0.005,0.01-0.008
	c0.018-0.013,0.032-0.026,0.048-0.04c0.004-0.002,0.008-0.005,0.012-0.008c0.015-0.013,0.031-0.026,0.047-0.037
	c0.004-0.005,0.008-0.008,0.012-0.011c0.016-0.013,0.03-0.026,0.048-0.04l0.004-0.002c0.019-0.017,0.036-0.029,0.054-0.046l0,0
	c0.074-0.058,0.147-0.119,0.221-0.181c0.002-0.002,0.005-0.002,0.008-0.005c0.015-0.014,0.029-0.024,0.044-0.037
	c0.004-0.006,0.009-0.008,0.013-0.014c0.014-0.011,0.028-0.021,0.04-0.031c0.007-0.006,0.014-0.011,0.021-0.017
	c0.013-0.011,0.024-0.021,0.038-0.031c0.007-0.006,0.014-0.011,0.019-0.017c0.014-0.011,0.026-0.021,0.039-0.031
	c0.006-0.006,0.013-0.014,0.02-0.02c0.015-0.01,0.025-0.021,0.04-0.031c0.005-0.006,0.012-0.011,0.019-0.017
	c0.012-0.01,0.023-0.021,0.036-0.031c0.008-0.006,0.016-0.014,0.023-0.019c0.012-0.011,0.024-0.021,0.036-0.032
	c0.007-0.005,0.012-0.011,0.019-0.016c0.014-0.011,0.026-0.021,0.04-0.032c0.005-0.005,0.011-0.011,0.016-0.014
	c0.015-0.013,0.026-0.023,0.043-0.037c0.004-0.002,0.008-0.008,0.012-0.011c0.016-0.013,0.029-0.023,0.044-0.037
	c0.004-0.002,0.008-0.005,0.012-0.011c0.029-0.023,0.06-0.05,0.091-0.076c0.004-0.003,0.006-0.006,0.01-0.009
	c0.013-0.011,0.024-0.021,0.035-0.031c0.008-0.006,0.016-0.014,0.022-0.019c0.01-0.009,0.021-0.019,0.03-0.027
	c0.011-0.008,0.021-0.016,0.029-0.026c0.01-0.008,0.019-0.013,0.028-0.021c0.009-0.01,0.02-0.019,0.029-0.026
	c0.009-0.008,0.019-0.016,0.027-0.023c0.011-0.011,0.021-0.019,0.031-0.027c0.009-0.008,0.02-0.019,0.029-0.026
	c0.009-0.008,0.019-0.016,0.027-0.023c0.01-0.008,0.021-0.017,0.029-0.026c0.01-0.009,0.021-0.017,0.03-0.027
	c0.009-0.005,0.018-0.016,0.025-0.021c0.011-0.011,0.022-0.02,0.033-0.029c0.009-0.009,0.018-0.017,0.025-0.021
	c0.011-0.011,0.021-0.021,0.032-0.029c0.008-0.008,0.018-0.016,0.025-0.024c0.012-0.008,0.023-0.019,0.034-0.029
	c0.007-0.005,0.016-0.013,0.022-0.019c0.017-0.016,0.031-0.029,0.047-0.042c0.004-0.003,0.007-0.006,0.009-0.008
	c0.04-0.035,0.079-0.069,0.117-0.106c0.003,0,0.007-0.006,0.007-0.006c0.019-0.016,0.034-0.029,0.051-0.045
	c0.005-0.003,0.012-0.011,0.017-0.014c0.014-0.013,0.027-0.026,0.042-0.037c0.004-0.005,0.012-0.011,0.016-0.016
	c0.014-0.014,0.028-0.024,0.041-0.037c0.007-0.006,0.012-0.011,0.019-0.016c0.014-0.014,0.026-0.024,0.04-0.038
	c0.005-0.005,0.011-0.008,0.016-0.013c0.014-0.014,0.027-0.026,0.042-0.037c0.006-0.008,0.012-0.011,0.019-0.019
	c0.012-0.011,0.024-0.024,0.038-0.035c0.007-0.005,0.012-0.011,0.018-0.016c0.015-0.014,0.027-0.024,0.042-0.037
	c0.004-0.006,0.01-0.011,0.015-0.014c0.015-0.016,0.032-0.029,0.047-0.045c0.004-0.003,0.005-0.006,0.009-0.008
	c0.018-0.017,0.033-0.029,0.051-0.046c0.003-0.002,0.004-0.005,0.007-0.008c0.077-0.068,0.154-0.141,0.229-0.212
	c0.005-0.003,0.007-0.006,0.01-0.009c0.016-0.016,0.033-0.031,0.049-0.045c0.003-0.005,0.006-0.005,0.01-0.011
	c0.015-0.013,0.03-0.029,0.047-0.042c0.004-0.006,0.008-0.009,0.013-0.014c0.015-0.014,0.029-0.026,0.044-0.043
	c0.006-0.002,0.008-0.005,0.012-0.01c0.015-0.014,0.029-0.027,0.044-0.04c0.004-0.006,0.01-0.011,0.015-0.014
	c0.015-0.016,0.029-0.029,0.044-0.042c0.006-0.006,0.007-0.006,0.011-0.011c0.016-0.017,0.032-0.029,0.048-0.046
	c0.003-0.002,0.007-0.005,0.008-0.008c0.018-0.016,0.033-0.031,0.051-0.048c0.003-0.002,0.004-0.005,0.007-0.005
	c0.017-0.019,0.034-0.035,0.052-0.051c0.003-0.003,0.003-0.003,0.005-0.005c0.076-0.072,0.151-0.146,0.228-0.221h0.003
	c0.017-0.019,0.035-0.037,0.055-0.054c0.001-0.002,0.001-0.002,0.001-0.002c0.019-0.02,0.037-0.035,0.055-0.054
	c0,0,0.004-0.003,0.005-0.005c0.016-0.017,0.033-0.032,0.049-0.048c0.003-0.003,0.007-0.006,0.009-0.009
	c0.016-0.016,0.031-0.031,0.048-0.048c0.002-0.002,0.006-0.005,0.011-0.008c0.016-0.016,0.031-0.031,0.048-0.048
	c0.002-0.002,0.004-0.002,0.005-0.005c0.018-0.019,0.034-0.035,0.052-0.051c0.001-0.003,0.003-0.005,0.003-0.005
	c0.133-0.131,0.265-0.261,0.394-0.394h0.001c0.018-0.019,0.034-0.037,0.053-0.054c0.002-0.002,0.005-0.005,0.006-0.008
	c0.018-0.016,0.033-0.031,0.049-0.051c0.003,0,0.006-0.002,0.007-0.005c0.016-0.016,0.032-0.032,0.048-0.048
	c0.003-0.003,0.007-0.008,0.008-0.011c0.017-0.016,0.032-0.032,0.048-0.048c0.003-0.003,0.006-0.005,0.007-0.008
	c0.018-0.016,0.032-0.032,0.049-0.048c0.003-0.003,0.003-0.005,0.007-0.008c0.018-0.017,0.033-0.035,0.051-0.051
	c0.001-0.003,0.001-0.003,0.004-0.005c0.11-0.114,0.22-0.229,0.328-0.344c0,0,0.002,0,0.003-0.002
	c0.018-0.017,0.033-0.035,0.051-0.054c0.001-0.002,0.005-0.005,0.008-0.008c0.015-0.016,0.03-0.032,0.045-0.048
	c0.003-0.003,0.007-0.008,0.01-0.011c0.015-0.016,0.029-0.029,0.044-0.045c0.004-0.005,0.006-0.008,0.012-0.014
	c0.013-0.013,0.027-0.029,0.042-0.045c0.003-0.003,0.007-0.008,0.01-0.011c0.015-0.016,0.03-0.031,0.045-0.048
	c0.003-0.003,0.006-0.005,0.008-0.008c0.018-0.019,0.033-0.034,0.05-0.053c0.002-0.003,0.001-0.003,0.004-0.003
	c0.016-0.019,0.033-0.037,0.051-0.056l0.001-0.003c0.073-0.077,0.145-0.157,0.217-0.234l0.001-0.002
	c0.019-0.019,0.034-0.037,0.052-0.056c0,0,0.004-0.003,0.004-0.006c0.017-0.016,0.032-0.034,0.048-0.051
	c0.002-0.002,0.006-0.005,0.008-0.008c0.015-0.019,0.031-0.034,0.046-0.051c0.002-0.002,0.005-0.005,0.008-0.008
	c0.013-0.016,0.027-0.031,0.042-0.048c0.004-0.005,0.009-0.008,0.013-0.013c0.015-0.017,0.027-0.032,0.042-0.048
	c0.003-0.003,0.006-0.006,0.01-0.008c0.015-0.02,0.029-0.035,0.044-0.051c0.002-0.003,0.005-0.006,0.008-0.008
	c0.015-0.019,0.029-0.035,0.044-0.051c0.004-0.003,0.005-0.006,0.009-0.011c0.015-0.016,0.031-0.032,0.046-0.051
	c0,0,0.004-0.002,0.006-0.005c0.069-0.08,0.139-0.157,0.209-0.236c0.003-0.003,0.006-0.006,0.008-0.009
	c0.015-0.019,0.029-0.034,0.044-0.05c0.001-0.003,0.007-0.008,0.008-0.011c0.015-0.017,0.029-0.032,0.043-0.048
	c0.004-0.003,0.008-0.008,0.012-0.014c0.014-0.013,0.025-0.029,0.039-0.045c0.004-0.003,0.009-0.008,0.013-0.014
	c0.012-0.016,0.025-0.029,0.037-0.042c0.006-0.008,0.011-0.014,0.015-0.019c0.014-0.014,0.025-0.029,0.039-0.043
	c0.004-0.005,0.008-0.008,0.012-0.013c0.014-0.017,0.026-0.032,0.04-0.048c0.003-0.003,0.008-0.009,0.012-0.014
	c0.014-0.016,0.026-0.029,0.04-0.045c0.003-0.006,0.007-0.009,0.011-0.014c0.013-0.016,0.026-0.032,0.04-0.048
	c0.004-0.003,0.008-0.008,0.011-0.011c0.034-0.04,0.067-0.08,0.102-0.119l0.003-0.003c0.015-0.019,0.03-0.037,0.047-0.056
	c0.005-0.006,0.009-0.011,0.015-0.017c0.012-0.013,0.022-0.026,0.034-0.042c0.007-0.006,0.012-0.014,0.018-0.021
	c0.012-0.014,0.022-0.026,0.034-0.04c0.006-0.005,0.011-0.011,0.016-0.016c0.011-0.014,0.021-0.026,0.032-0.04
	c0.008-0.008,0.012-0.014,0.019-0.023c0.011-0.011,0.021-0.024,0.032-0.038c0.007-0.008,0.012-0.013,0.019-0.021
	c0.011-0.014,0.021-0.024,0.03-0.037c0.007-0.006,0.014-0.017,0.021-0.021c0.011-0.014,0.02-0.026,0.03-0.04
	c0.007-0.005,0.012-0.014,0.019-0.021c0.011-0.011,0.02-0.023,0.03-0.037c0.007-0.005,0.013-0.014,0.019-0.021
	c0.011-0.013,0.023-0.026,0.033-0.04c0.006-0.008,0.01-0.013,0.017-0.019c0.012-0.016,0.025-0.031,0.037-0.045
	c0.003-0.005,0.008-0.011,0.012-0.013c0.033-0.04,0.066-0.083,0.099-0.123l0,0c0.018-0.019,0.033-0.04,0.049-0.059
	c0.006-0.008,0.01-0.013,0.016-0.019c0.011-0.013,0.021-0.026,0.032-0.039c0.007-0.009,0.014-0.017,0.021-0.027
	c0.009-0.011,0.019-0.021,0.027-0.034c0.008-0.008,0.015-0.016,0.021-0.024c0.009-0.013,0.019-0.023,0.026-0.034
	c0.008-0.008,0.017-0.019,0.024-0.029s0.016-0.019,0.025-0.029c0.008-0.011,0.014-0.019,0.022-0.029
	c0.008-0.011,0.016-0.019,0.023-0.029c0.01-0.011,0.018-0.021,0.026-0.034c0.007-0.008,0.014-0.016,0.021-0.024
	c0.008-0.011,0.018-0.021,0.025-0.031s0.015-0.019,0.022-0.029s0.018-0.021,0.025-0.032s0.015-0.019,0.022-0.026
	c0.008-0.011,0.018-0.021,0.025-0.032c0.007-0.011,0.014-0.019,0.021-0.026c0.009-0.014,0.019-0.024,0.027-0.037
	c0.004-0.006,0.009-0.011,0.013-0.014c0.035-0.048,0.07-0.09,0.106-0.136c0.006-0.01,0.014-0.019,0.021-0.026
	c0.011-0.013,0.021-0.026,0.031-0.04c0.005-0.005,0.009-0.013,0.015-0.019c0.01-0.013,0.022-0.029,0.031-0.042
	c0.006-0.006,0.011-0.011,0.015-0.019c0.011-0.014,0.021-0.024,0.031-0.037c0.006-0.009,0.01-0.014,0.017-0.021
	c0.01-0.014,0.021-0.026,0.029-0.04c0.006-0.005,0.012-0.014,0.018-0.021c0.011-0.013,0.021-0.026,0.03-0.04
	c0.006-0.005,0.01-0.011,0.014-0.016c0.012-0.016,0.022-0.029,0.034-0.045c0.004-0.006,0.008-0.011,0.012-0.017
	c0.011-0.013,0.023-0.029,0.033-0.042c0.005-0.006,0.009-0.011,0.013-0.016c0.011-0.014,0.023-0.029,0.034-0.046
	c0.003-0.005,0.007-0.008,0.01-0.013c0.013-0.017,0.024-0.032,0.037-0.048c0,0,0.001,0,0.001-0.003
	c0.076-0.096,0.147-0.191,0.222-0.29l0,0c0.014-0.019,0.027-0.037,0.04-0.053c0.002-0.003,0.004-0.006,0.006-0.008
	c0.012-0.017,0.025-0.032,0.035-0.048c0.005-0.006,0.007-0.011,0.011-0.014c0.013-0.016,0.024-0.032,0.036-0.048
	c0.003-0.005,0.005-0.008,0.008-0.014c0.014-0.016,0.025-0.031,0.039-0.05c0.001-0.003,0.002-0.003,0.004-0.006
	c0.015-0.019,0.027-0.037,0.041-0.056l0.001-0.003c0.015-0.019,0.028-0.037,0.043-0.056c0-0.003,0.001-0.003,0.001-0.003
	c0.864-1.169,1.678-2.379,2.436-3.623L86.228,71.623L86.228,71.623z M97.85,45.146l-5.427,0.422
	c0.088,1.135,0.133,2.289,0.133,3.432c0,4.958-0.824,9.814-2.45,14.443l5.137,1.805c1.322-3.764,2.197-7.733,2.563-11.854
	c0-0.003,0-0.003,0-0.006c0.003-0.023,0.004-0.05,0.007-0.074l0,0c0.01-0.104,0.018-0.204,0.026-0.309c0-0.002,0-0.002,0-0.005
	c0.002-0.021,0.004-0.048,0.006-0.072c0-0.002,0-0.002,0-0.005c0.009-0.101,0.016-0.205,0.023-0.306c0-0.003,0-0.005,0-0.005
	c0.003-0.024,0.004-0.051,0.006-0.072c0-0.003,0-0.005,0-0.005c0.002-0.024,0.004-0.048,0.005-0.072c0-0.003,0-0.005,0-0.005
	c0.007-0.08,0.011-0.154,0.016-0.231c0-0.003,0-0.003,0-0.006c0.003-0.021,0.005-0.045,0.006-0.068c0-0.003,0-0.009,0-0.011
	c0.003-0.024,0.004-0.046,0.005-0.069c0-0.003,0-0.003,0-0.006c0.002-0.026,0.003-0.048,0.004-0.074v-0.002
	c0.005-0.051,0.007-0.102,0.01-0.152c0-0.005,0-0.011,0.001-0.016c0.002-0.019,0.002-0.037,0.003-0.059
	c0.001-0.005,0.001-0.013,0.001-0.019c0.002-0.019,0.003-0.037,0.003-0.056c0.002-0.006,0.002-0.014,0.002-0.019
	c0.001-0.021,0.002-0.043,0.004-0.062c0-0.005,0-0.008,0-0.013c0.001-0.024,0.002-0.051,0.004-0.075l0,0
	c0.001-0.023,0.002-0.05,0.004-0.074c0-0.005,0-0.011,0-0.016c0.001-0.019,0.002-0.04,0.002-0.059
	c0.002-0.008,0.002-0.016,0.002-0.021c0.001-0.019,0.001-0.034,0.003-0.053c0-0.008,0.001-0.017,0.001-0.021
	c0-0.019,0.001-0.037,0.003-0.056c0-0.008,0-0.014,0-0.019c0.002-0.051,0.005-0.099,0.006-0.151c0-0.003,0-0.006,0-0.009
	c0.002-0.021,0.003-0.042,0.003-0.063c0.002-0.008,0.002-0.014,0.002-0.021c0-0.016,0.001-0.034,0.002-0.05c0-0.011,0-0.019,0-0.027
	c0.002-0.016,0.002-0.037,0.003-0.053c0-0.006,0-0.014,0-0.019c0.001-0.021,0.001-0.04,0.003-0.062c0-0.005,0-0.011,0-0.013
	c0.001-0.027,0.002-0.054,0.002-0.077v-0.003c0.002-0.024,0.002-0.048,0.003-0.069c0-0.008,0-0.016,0-0.023
	c0.001-0.019,0.001-0.032,0.003-0.051c0-0.008,0-0.016,0-0.024c0.001-0.019,0.001-0.034,0.001-0.05
	c0.002-0.008,0.002-0.017,0.002-0.026c0-0.017,0.001-0.035,0.001-0.054c0-0.005,0-0.014,0-0.019
	c0.001-0.023,0.001-0.045,0.003-0.069c0-0.002,0-0.005,0-0.008c0-0.023,0.001-0.048,0.001-0.071c0-0.009,0-0.014,0.001-0.019
	c0-0.02,0-0.038,0.002-0.057c0-0.008,0-0.016,0-0.023c0-0.016,0-0.035,0.001-0.051c0-0.008,0-0.016,0-0.023
	c0-0.019,0.001-0.035,0.001-0.051c0-0.008,0-0.016,0-0.024c0.002-0.021,0.002-0.042,0.002-0.063c0-0.005,0-0.008,0-0.011
	c0.001-0.024,0.001-0.05,0.001-0.074c0-0.005,0-0.013,0-0.019c0.002-0.019,0.002-0.035,0.002-0.053c0-0.011,0-0.019,0-0.029
	c0-0.016,0.001-0.029,0.001-0.045c0-0.008,0-0.021,0-0.029c0-0.016,0-0.032,0-0.045c0-0.011,0.001-0.019,0.001-0.029
	c0-0.016,0-0.035,0-0.05c0-0.008,0-0.016,0-0.024c0-0.024,0.002-0.048,0.002-0.072c0-0.005,0-0.013,0-0.019c0-0.019,0-0.038,0-0.053
	c0-0.011,0-0.019,0-0.029c0-0.016,0-0.032,0-0.048c0-0.008,0-0.019,0.001-0.027c0-0.016,0-0.029,0-0.045c0-0.011,0-0.021,0-0.032
	c0-0.016,0-0.032,0-0.048c0-0.008,0-0.016,0-0.024c0-0.023,0-0.048,0-0.074l0,0c0-0.021,0-0.048,0-0.072c0-0.005,0-0.013,0-0.021
	c0-0.016,0-0.032,0-0.051c0-0.008,0-0.016,0-0.024c0-0.021,0-0.037-0.001-0.059c0-0.005,0-0.008,0-0.013c0-0.024,0-0.045,0-0.069
	c0-0.008,0-0.019,0-0.026c0-0.016,0-0.032,0-0.045c0-0.011,0-0.019,0-0.029c0-0.014-0.002-0.032-0.002-0.048
	c0-0.008,0-0.016,0-0.024c0-0.024,0-0.045,0-0.067c0-0.008-0.001-0.019-0.001-0.026c0-0.016,0-0.029,0-0.042s0-0.024,0-0.035
	s-0.001-0.026-0.001-0.037s0-0.024,0-0.035c0-0.013,0-0.024,0-0.035c-0.002-0.024-0.002-0.045-0.002-0.066
	c0-0.011,0-0.021-0.001-0.029c0-0.016,0-0.029,0-0.042c0-0.008,0-0.016-0.002-0.026c0-0.013,0-0.029,0-0.045
	c0-0.002,0-0.011,0-0.016c-0.001-0.053-0.002-0.109-0.004-0.162c0-0.003,0-0.005,0-0.008C97.966,46.94,97.92,46.039,97.85,45.146
	L97.85,45.146z M86.362,17.296l-4.149,3.525c3.967,4.671,6.85,10.001,8.572,15.841l5.223-1.539
	c-1.721-5.833-4.496-11.213-8.104-15.918c-0.003-0.003-0.003-0.003-0.004-0.005c-0.015-0.019-0.029-0.037-0.043-0.056
	c-0.004-0.005-0.006-0.008-0.011-0.014c-0.012-0.013-0.023-0.029-0.035-0.045c-0.004-0.005-0.011-0.014-0.015-0.019
	c-0.011-0.014-0.021-0.029-0.032-0.043c-0.005-0.008-0.011-0.013-0.016-0.021c-0.011-0.013-0.021-0.027-0.031-0.037
	c-0.006-0.011-0.012-0.016-0.019-0.027c-0.009-0.011-0.019-0.021-0.026-0.032c-0.007-0.011-0.016-0.021-0.022-0.029
	c-0.008-0.011-0.016-0.021-0.023-0.029c-0.007-0.011-0.017-0.021-0.024-0.032c-0.007-0.011-0.015-0.019-0.021-0.027
	c-0.008-0.013-0.017-0.024-0.026-0.034c-0.007-0.008-0.012-0.016-0.019-0.024c-0.01-0.014-0.019-0.024-0.029-0.038
	c-0.004-0.005-0.009-0.013-0.015-0.019c-0.012-0.016-0.021-0.026-0.033-0.042c-0.001-0.002-0.003-0.002-0.005-0.005
	C87.097,18.176,86.735,17.734,86.362,17.296L86.362,17.296z M60.757,1.419l-1.303,5.288c5.916,1.457,11.369,4.097,16.209,7.851
	l3.336-4.304C73.682,6.133,67.492,3.079,60.757,1.419L60.757,1.419z"/>
<path fill="#D51515" d="M46.508,63.557l-3.49-40.273c-0.3-3.188,2.889-5.38,5.981-5.38c3.088,0,6.279,2.192,5.982,5.38
	l-3.489,40.273H46.508z M49,68.733c3.088,0,5.879,2.491,5.879,5.681c0,3.19-2.69,5.682-5.879,5.682s-5.879-2.491-5.879-5.682
	C43.12,71.225,45.908,68.733,49,68.733z"/>
</svg>
