<?xml version="1.0" encoding="utf-8"?>
<!-- Generator: Adobe Illustrator 15.0.2, SVG Export Plug-In . SVG Version: 6.00 Build 0)  -->
<!DOCTYPE svg PUBLIC "-//W3C//DTD SVG 1.1//EN" "http://www.w3.org/Graphics/SVG/1.1/DTD/svg11.dtd">
<svg version="1.1" id="图层_1" xmlns="http://www.w3.org/2000/svg" xmlns:xlink="http://www.w3.org/1999/xlink" x="0px" y="0px"
	 width="100px" height="100px" viewBox="0 0 100 100" enable-background="new 0 0 100 100" xml:space="preserve">
<path fill="#323333" d="M0,13.603v75.07h100v-75.07H0z M92.658,81.331H7.343V20.946h85.315V81.331z"/>
<path fill="#323333" d="M33.32,66.048L11.357,54.316v-6.497L33.32,36.141v7.651L18,50.986l15.32,7.463V66.048z"/>
<path fill="#323333" d="M66.385,66.034v-7.599l15.342-7.408l-15.342-7.329v-7.543l21.984,11.677v6.443L66.385,66.034z"/>
<g>
	<path fill="#323333" d="M43.315,46.894c0,0.679,0.486,1.229,1.084,1.229c0.008,0,0.011,0,0.022,0
		c0.223,3.234,2.611,6.465,5.529,6.465c2.917,0,5.31-3.231,5.533-6.465c0.006,0,0.014,0,0.02,0c0.601,0,1.086-0.55,1.086-1.229
		c0-0.499-0.265-0.927-0.645-1.117c0.22-0.727,0.34-1.504,0.34-2.314c0-3.953-2.832-7.158-6.332-7.158
		c-3.498,0-6.333,3.205-6.333,7.158c0,0.81,0.12,1.587,0.339,2.314C43.577,45.967,43.315,46.396,43.315,46.894z"/>
	<path fill="#323333" d="M36.498,66.053h26.907c0.327,0,0.593-0.279,0.593-0.63v-2.247c0-0.169-0.066-0.332-0.179-0.45
		c-2.587-2.674-5.744-4.562-9.141-5.467c-0.087-0.047-0.182-0.076-0.28-0.076H54.09c-0.098,0-0.193,0.024-0.281,0.075
		c-1.022,0.583-2.433,0.922-3.858,0.922c-1.426,0-2.831-0.336-3.856-0.922c-0.087-0.051-0.181-0.075-0.279-0.075h-0.223
		c-0.047,0-0.092,0.005-0.137,0.017c-3.483,0.88-6.724,2.789-9.368,5.526c-0.114,0.118-0.178,0.281-0.178,0.45v2.247
		C35.907,65.772,36.171,66.053,36.498,66.053z"/>
</g>
</svg>
