<?xml version="1.0" encoding="utf-8"?>
<!-- Generator: Adobe Illustrator 15.0.2, SVG Export Plug-In  -->
<!DOCTYPE svg PUBLIC "-//W3C//DTD SVG 1.1//EN" "http://www.w3.org/Graphics/SVG/1.1/DTD/svg11.dtd" [
	<!ENTITY ns_flows "http://ns.adobe.com/Flows/1.0/">
]>
<svg version="1.1"
	 xmlns="http://www.w3.org/2000/svg" xmlns:xlink="http://www.w3.org/1999/xlink" xmlns:a="http://ns.adobe.com/AdobeSVGViewerExtensions/3.0/"
	 x="0px" y="0px" width="100px" height="100px" viewBox="-2 -1.822 100 100" enable-background="new -2 -1.822 100 100"
	 xml:space="preserve">
<defs>
</defs>
<path fill="#9F9F9F" d="M48,0C21.49,0,0,21.49,0,48c0,26.512,21.49,48,48,48c26.512,0,48-21.488,48-48C96,21.49,74.512,0,48,0z
	 M73.883,63.09c-1.18,0.615-3.023-0.785-4.754-3.357c-0.682,2.805-2.383,5.34-4.801,7.379c2.541,0.938,4.198,2.469,4.198,4.201
	c0,2.854-4.489,5.164-10.028,5.164c-4.994,0-9.135-1.877-9.902-4.34c-0.199-0.004-0.988-0.004-1.193,0
	c-0.764,2.463-4.902,4.34-9.898,4.34c-5.541,0-10.029-2.311-10.029-5.164c0-1.732,1.658-3.264,4.199-4.201
	c-2.422-2.039-4.117-4.574-4.802-7.379c-1.729,2.572-3.579,3.973-4.757,3.357c-1.711-0.891-1.367-5.676,0.764-10.688
	c1.67-3.938,3.949-6.84,5.672-7.482c-0.021-0.248-0.031-0.502-0.031-0.756c0-1.521,0.424-2.928,1.14-4.072
	c-0.003-0.09-0.009-0.18-0.009-0.27c0-0.699,0.166-1.357,0.454-1.924c0.436-10.24,7.105-18.375,17.897-18.375
	c10.789,0,17.456,8.135,17.895,18.375c0.285,0.566,0.451,1.225,0.451,1.924c0,0.09,0,0.18-0.012,0.27
	c0.723,1.145,1.146,2.551,1.146,4.072c0,0.254-0.013,0.508-0.038,0.756c1.732,0.643,4.006,3.545,5.679,7.482
	C75.256,57.414,75.594,62.199,73.883,63.09z"/>
</svg>
