<?xml version="1.0" encoding="utf-8"?>
<!-- Generator: Adobe Illustrator 15.0.2, SVG Export Plug-In . SVG Version: 6.00 Build 0)  -->
<!DOCTYPE svg PUBLIC "-//W3C//DTD SVG 1.1//EN" "http://www.w3.org/Graphics/SVG/1.1/DTD/svg11.dtd">
<svg version="1.1" id="图层_1" xmlns="http://www.w3.org/2000/svg" xmlns:xlink="http://www.w3.org/1999/xlink" x="0px" y="0px"
	 width="100px" height="100px" viewBox="0 0 100 100" enable-background="new 0 0 100 100" xml:space="preserve">
<path fill="#323333" d="M35.923,95.85c3.943,2.553,8.51,4.279,14.072,4.146c5.562,0.135,10.129-1.593,14.071-4.146V85.5H35.923
	V95.85z M63.479,79.5c0-21.785,23.152-28.748,21.42-50.448C83.809,15.36,74.532,0,49.995,0C25.46,0,16.187,15.36,15.093,29.052
	c-1.734,21.7,21.418,28.663,21.418,50.448H63.479z M25.688,29.84c1.037-12.996,9.877-19.584,24.307-19.584
	c14.43,0,23.272,6.589,24.31,19.584c0.567,7.115-3.525,11.858-9.048,19.628c-4.069,5.732-8.879,12.498-11.125,21.304h-8.273
	c-2.246-8.806-7.053-15.57-11.125-21.304C29.214,41.698,25.12,36.955,25.688,29.84z"/>
</svg>
